<?xml version="1.0" encoding="UTF-8"?>
<!DOCTYPE svg PUBLIC "-//W3C//DTD SVG 1.1//EN" "http://www.w3.org/Graphics/SVG/1.1/DTD/svg11.dtd">
<!-- Creator: CorelDRAW 2021 (64 Bit) -->
<svg xmlns="http://www.w3.org/2000/svg" xml:space="preserve" width="381.208mm" height="86.0369mm" version="1.1" style="shape-rendering:geometricPrecision; text-rendering:geometricPrecision; image-rendering:optimizeQuality; fill-rule:evenodd; clip-rule:evenodd"
viewBox="0 0 38116.68 8602.75"
 xmlns:xlink="http://www.w3.org/1999/xlink"
 xmlns:xodm="http://www.corel.com/coreldraw/odm/2003">
 <defs>
  <style type="text/css">
   <![CDATA[
    .fil0 {fill:#04A4B2;fill-rule:nonzero}
   ]]>
  </style>
 </defs>
 <g id="Camada_x0020_1">
  <metadata id="CorelCorpID_0Corel-Layer"/>
  <path class="fil0" d="M22589.06 5317.06l0 -1334.3c278.65,-1146.76 825.23,-1736.21 1559.37,-1387.9l75.02 -375.11c-739.5,-246.49 -1345.02,401.91 -1629.03,1548.66l-5.36 0 0 -1548.66 -535.87 0 0 3097.31 535.87 0z"/>
  <path class="fil0" d="M14497.67 5317.06c-42.88,-434.05 -16.08,-884.18 48.22,-1420.05l257.22 -2197.05 1270 3617.1 359.03 0 1098.52 -3258.07 444.77 3258.07 535.87 0 -519.79 -3761.78 -375.11 0 -1141.4 3365.24 -1184.26 -3365.24 -535.87 0 -278.65 2336.38c-69.66,519.79 -176.83,948.49 -348.31,1425.4l369.75 0z"/>
  <path class="fil0" d="M19820.46 5397.44c401.9,0 825.23,-225.07 1130.68,-557.3l0 476.92 535.86 0 0 -2239.93c0,-701.98 -509.07,-953.84 -1130.68,-953.84 -417.97,0 -884.18,112.53 -1264.64,289.37l107.17 412.62c332.24,-385.83 782.36,-637.68 1173.55,-637.68 342.95,0 578.74,208.99 578.74,653.76 -1093.17,251.85 -2143.47,680.55 -2143.47,1612.95 0,557.3 380.46,943.13 1012.79,943.13zm208.99 -171.48c-380.47,0 -685.92,-278.65 -685.92,-852.03 0,-680.55 401.91,-1194.98 1607.6,-1457.55l0 1848.74c-235.78,257.21 -605.53,460.84 -921.69,460.84z"/>
  <path class="fil0" d="M25362.64 5402.8c244.2,0 488.41,-89.1 683.11,-234.3l145.2 181.5 343.2 0 -270.6 -343.2c194.7,-204.6 313.5,-462 313.5,-722.7l-244.19 0c0,224.4 -62.7,432.3 -168.3,600.6l-808.51 -1023.01c-135.3,-165 -188.1,-320.11 -188.1,-448.8 0,-244.2 184.8,-379.51 376.2,-379.51 204.61,0 422.4,158.4 422.4,495.01l254.1 0c0,-369.6 -270.6,-541.2 -603.9,-541.2 -359.7,0 -683.11,221.1 -683.11,551.1 0,138.6 56.1,293.71 191.41,465.3l49.49 66c-455.4,125.41 -653.4,422.4 -653.4,696.3 0,343.2 287.1,636.91 841.5,636.91zm29.71 -39.61c-376.21,0 -584.11,-287.1 -584.11,-594.01 0,-237.59 135.31,-491.7 419.1,-633.6l768.91 970.2c-161.7,158.4 -372.91,257.4 -603.9,257.4z"/>
  <path class="fil0" d="M28077.87 5317.06c-42.88,-434.05 -16.08,-884.18 48.22,-1420.05l257.22 -2197.05 1270 3617.1 359.03 0 1098.52 -3258.07 444.77 3258.07 535.87 0 -519.79 -3761.78 -375.11 0 -1141.4 3365.24 -1184.26 -3365.24 -535.87 0 -278.65 2336.38c-69.66,519.79 -176.83,948.49 -348.31,1425.4l369.75 0z"/>
  <path class="fil0" d="M33709.76 5408.16c910.98,0 1489.72,-648.4 1489.72,-1629.03 0,-991.36 -578.74,-1650.47 -1489.72,-1650.47 -943.12,0 -1500.43,659.11 -1500.43,1650.47 0,980.63 557.31,1629.03 1500.43,1629.03zm0 -75.02c-669.83,0 -985.99,-744.86 -985.99,-1554.01 0,-782.37 316.17,-1575.45 985.99,-1575.45 626.97,0 980.64,793.07 980.64,1575.45 0,809.15 -353.67,1554.01 -980.64,1554.01z"/>
  <path class="fil0" d="M37741.57 2219.75c10.72,568.02 -69.66,953.85 -251.85,1436.12l-557.3 1462.92 -1125.33 -2899.04 -535.86 0 1189.62 3097.31 466.21 0 1189.62 -3097.31 -375.11 0z"/>
  <path class="fil0" d="M230.17 4373.75l-0.48 -0.53 0.42 0.76 1.08 1.98 1.1 1.99 1.08 1.98 1.11 1.99 1.1 1.99 1.11 1.98 1.08 1.95 1.12 2 1.11 1.99 1.1 1.96 1.08 1.95 1.1 1.96 1.11 1.97 1.1 2 1.11 1.95 1.08 1.92 1.1 1.98 1.1 1.97 1.11 1.96 1.1 1.97 1.13 1.96 1.08 1.92 1.12 1.96 1.11 1.95 1.1 1.96 1.1 1.92 1.11 1.97 1.1 1.94 1.13 1.94 1.1 1.94 1.1 1.94 1.11 1.93 1.12 1.94 1.11 1.94 1.1 1.94 1.13 1.94 1.1 1.92 1.1 1.92 1.11 1.95 1.12 1.92 1.13 1.94 1.1 1.92 1.11 1.92 1.1 1.92 1.12 1.92 1.11 1.92 1.12 1.92 1.11 1.9 1.12 1.92 1.11 1.92 1.12 1.92 1.11 1.9 1.12 1.92 1.1 1.92 1.13 1.87 1.13 1.95 1.12 1.92 1.1 1.89 1.11 1.9 1.12 1.9 1.13 1.92 1.13 1.9 1.1 1.87 1.12 1.92 1.13 1.9 1.1 1.9 1.11 1.88 1.12 1.89 1.15 1.9 1.13 1.92 1.1 1.9 1.13 1.88 1.12 1.87 1.1 1.92 1.13 1.88 1.13 1.88 0.7 1.19c638.89,1069.79 1641.51,1897.16 2837.18,2311.24 13.95,4.86 27.99,9.51 42,14.24 14.02,4.72 28.01,9.51 42.07,14.12 14.06,4.59 28.18,9.03 42.29,13.53 14.1,4.5 28.18,9.05 42.33,13.42 14.15,4.37 28.38,8.56 42.6,12.82 14.21,4.26 28.4,8.63 42.68,12.78 14.26,4.15 28.6,8.06 42.91,12.1 14.3,4.04 28.56,8.16 42.9,12.07 14.35,3.91 28.81,7.61 43.2,11.41 14.39,3.8 28.73,7.68 43.17,11.37 14.43,3.68 28.98,7.15 43.48,10.7 14.5,3.56 28.95,7.2 43.5,10.64 14.54,3.42 29.13,6.69 43.72,10 14.59,3.33 29.2,6.71 43.83,9.91 14.66,3.2 29.36,6.24 44.06,9.33 14.67,3.09 29.35,6.23 44.1,9.19 14.74,2.98 29.53,5.76 44.31,8.6 14.79,2.85 29.58,5.72 44.41,8.43 14.85,2.74 29.75,5.3 44.65,7.91 14.9,2.6 29.77,5.2 44.72,7.68 14.92,2.47 29.92,4.83 44.91,7.19 14.99,2.36 30.02,4.7 45.05,6.93 15.05,2.23 30.12,4.37 45.22,6.47 15.1,2.12 30.22,4.19 45.36,6.18 15.14,1.98 30.32,3.86 45.51,5.71 15.2,1.86 30.45,3.67 45.71,5.39 15.25,1.74 30.54,3.4 45.84,5.01 15.29,1.61 30.63,3.11 45.98,4.59 15.39,1.48 30.77,2.94 46.19,4.28 15.4,1.35 30.88,2.56 46.31,3.78 15.48,1.21 30.95,2.42 46.45,3.51 15.54,1.08 31.12,2.05 46.7,3 15.58,0.95 31.14,1.92 46.75,2.73 15.63,0.82 31.32,1.48 46.98,2.17 15.72,0.68 31.37,1.41 47.09,1.96 15.76,0.53 31.59,0.88 47.38,1.3 15.8,0.42 31.58,0.93 47.4,1.2 15.87,0.26 31.78,0.33 47.68,0.46 15.65,0.13 31.28,0.4 46.94,0.4l0.81 0c16.05,0 32.05,-0.22 48.07,-0.38 16.06,-0.17 32.13,-0.35 48.17,-0.64 16.11,-0.31 32.22,-0.62 48.3,-1.06 16.22,-0.46 32.42,-1.08 48.61,-1.68 16.27,-0.61 32.49,-1.23 48.72,-1.98 16.36,-0.77 32.69,-1.59 49.01,-2.5 16.43,-0.9 32.82,-1.98 49.19,-3.04 16.44,-1.08 32.89,-2.14 49.3,-3.38 16.51,-1.23 33.04,-2.6 49.54,-3.99 16.62,-1.39 33.21,-2.89 49.78,-4.46 16.64,-1.57 33.28,-3.11 49.89,-4.84 16.75,-1.74 33.46,-3.61 50.16,-5.51 16.82,-1.9 33.61,-3.91 50.4,-5.98 16.86,-2.08 33.72,-4.15 50.55,-6.38 16.98,-2.25 33.9,-4.64 50.82,-7.07 17.02,-2.42 34.04,-4.96 51.02,-7.54 17.11,-2.61 34.17,-5.21 51.22,-7.99 17.19,-2.81 34.36,-5.72 51.5,-8.68 17.28,-2.98 34.52,-6.11 51.75,-9.27 17.32,-3.15 34.63,-6.38 51.9,-9.71 17.41,-3.35 34.83,-6.8 52.19,-10.33 17.52,-3.57 35.05,-7.3 52.52,-11.05 17.59,-3.78 35.13,-7.6 52.67,-11.55 17.66,-3.95 35.29,-7.92 52.89,-12.07 17.79,-4.19 35.54,-8.54 53.27,-12.91 17.86,-4.42 35.71,-8.92 53.51,-13.51 17.95,-4.61 35.85,-9.27 53.74,-14.08 18.03,-4.83 36.06,-9.71 54.02,-14.74 18.21,-5.08 36.3,-10.36 54.44,-15.63 18.25,-5.32 36.48,-10.75 54.66,-16.24 18.34,-5.54 36.63,-11.15 54.9,-16.89 18.43,-5.8 36.86,-11.63 55.21,-17.61 18.56,-6.07 37.08,-12.32 55.56,-18.56 18.68,-6.34 37.3,-12.78 55.9,-19.29 18.78,-6.6 37.54,-13.25 56.23,-20.04 18.87,-6.87 37.74,-13.75 56.53,-20.82 19.01,-7.13 37.99,-14.37 56.89,-21.71 19.16,-7.44 38.27,-15.1 57.33,-22.76 19.29,-7.77 38.52,-15.63 57.71,-23.59 19.42,-8.06 38.78,-16.25 58.08,-24.52 19.53,-8.37 39.02,-16.84 58.43,-25.45 19.67,-8.72 39.31,-17.5 58.88,-26.47 19.82,-9.07 39.62,-18.2 59.31,-27.52 20.02,-9.44 39.95,-19.05 59.83,-28.73 20.19,-9.85 40.28,-19.82 60.33,-29.91 20.35,-10.22 40.59,-20.62 60.8,-31.1 20.5,-10.64 40.92,-21.41 61.28,-32.29 20.7,-11.08 41.31,-22.27 61.85,-33.61 20.9,-11.52 41.69,-23.18 62.41,-34.99 21.08,-12 42.07,-24.12 62.98,-36.39 21.3,-12.51 42.53,-25.16 63.64,-37.96 21.57,-13.07 43.02,-26.29 64.4,-39.64 21.78,-13.6 43.45,-27.37 65.03,-41.3 22.03,-14.21 43.94,-28.58 65.76,-43.1 22.31,-14.85 44.52,-29.89 66.6,-45.07 22.62,-15.54 45.09,-31.25 67.46,-47.13 22.93,-16.29 45.73,-32.76 68.39,-49.39 23.24,-17.06 46.36,-34.25 69.34,-51.68 23.63,-17.94 47.11,-36.06 70.46,-54.39 24.08,-18.94 47.97,-38.12 71.74,-57.47 24.5,-19.95 48.83,-40.14 73,-60.53 24.96,-21.05 49.78,-42.31 74.37,-63.84 25.58,-22.4 50.93,-45.07 76.09,-67.94 26.22,-23.86 52.17,-48.04 77.95,-72.45 26.86,-25.45 53.55,-51.11 79.91,-77.13 27.83,-27.48 55.27,-55.39 82.53,-83.53 28.76,-29.71 57.22,-59.71 85.32,-90.13 29.97,-32.44 59.6,-65.25 88.8,-98.49 31.54,-35.91 62.56,-72.3 93.15,-109.11 33.46,-40.28 66.36,-81.06 98.67,-122.4l6.31 -7.96c33.97,-43.66 67.27,-87.81 99.84,-132.51 40.33,-55.28 79.54,-111.36 117.65,-168.16 47.8,-71.26 93.82,-143.68 138.02,-217.22 23.9,-39.75 47.24,-79.82 70.04,-120.21 211.29,-374.24 298.19,-809.92 516.93,-1179.52 24.01,-40.59 49.61,-80.4 77.15,-119.22 14.37,-20.24 29.33,-39.99 44.78,-59.32 28.25,-35.33 58.26,-69.09 89.89,-101.23 25.18,-25.58 51.35,-50.11 78.45,-73.59 23.39,-20.26 47.42,-39.77 72.12,-58.44 22.16,-16.75 44.82,-32.88 67.92,-48.3 21.26,-14.19 42.89,-27.81 64.86,-40.88 20.52,-12.2 41.34,-23.88 62.45,-35.07 19.88,-10.52 40.06,-20.59 60.42,-30.21 19.4,-9.16 39,-17.92 58.79,-26.24 18.93,-7.99 38.07,-15.56 57.33,-22.76 18.56,-6.91 37.27,-13.53 56.09,-19.71 18.19,-5.98 36.51,-11.56 54.9,-16.84 17.86,-5.12 35.82,-9.91 53.87,-14.37 17.55,-4.32 35.18,-8.36 52.87,-12.07 17.28,-3.62 34.63,-6.91 52.01,-9.91 17.02,-2.94 34.1,-5.56 51.2,-7.9 16.79,-2.3 33.63,-4.3 50.49,-6.03 16.5,-1.67 33.04,-3.02 49.58,-4.12 16.29,-1.09 32.62,-1.92 48.94,-2.48 15.94,-0.53 31.85,-0.83 47.78,-0.83l0.46 0c15.93,0 31.78,0.28 47.57,0.79 15.72,0.51 31.37,1.28 46.94,2.27 15.52,1 30.99,2.25 46.36,3.73 15.32,1.48 30.59,3.2 45.78,5.15 15.14,1.96 30.19,4.1 45.17,6.51 14.97,2.4 29.84,5.05 44.65,7.9 14.79,2.85 29.49,5.94 44.1,9.22 14.61,3.29 29.14,6.8 43.57,10.53 14.41,3.71 28.78,7.66 43.02,11.81 14.25,4.15 28.4,8.5 42.46,13.07 14.08,4.59 28.08,9.38 41.96,14.36 13.93,5.01 27.74,10.22 41.47,15.65 13.75,5.41 27.39,11.06 40.92,16.89 13.57,5.85 27.06,11.89 40.41,18.14 13.4,6.27 26.68,12.69 39.86,19.36 13.24,6.68 26.35,13.57 39.35,20.65 13.07,7.11 26,14.42 38.83,21.92 12.89,7.53 25.64,15.27 38.29,23.2 12.71,7.96 25.29,16.15 37.72,24.5 11.17,7.5 22.2,15.11 33.15,22.91 -8.78,-13.07 -17.7,-25.83 -26.68,-38.47 -10.09,-14.17 -20.33,-28.01 -30.64,-41.65 -10.31,-13.62 -20.68,-27.08 -31.23,-40.19 -10.53,-13.09 -21.23,-25.85 -31.98,-38.45 -10.75,-12.6 -21.59,-24.96 -32.53,-37.06 -10.95,-12.09 -22.01,-24.01 -33.13,-35.62 -11.17,-11.65 -22.43,-22.98 -33.77,-34.14 -11.34,-11.17 -22.78,-22.14 -34.3,-32.85 -11.56,-10.75 -23.17,-21.29 -34.87,-31.58 -11.72,-10.31 -23.53,-20.35 -35.38,-30.19 -11.9,-9.89 -23.84,-19.6 -35.84,-29.05 -12.08,-9.49 -24.24,-18.69 -36.42,-27.74 -12.25,-9.09 -24.54,-17.99 -36.88,-26.64 -12.4,-8.7 -24.85,-17.24 -37.34,-25.52 -12.59,-8.34 -25.19,-16.42 -37.83,-24.32 -12.72,-7.97 -25.45,-15.78 -38.21,-23.3 -12.89,-7.62 -25.8,-14.97 -38.73,-22.16 -13.05,-7.27 -26.09,-14.33 -39.14,-21.17 -13.17,-6.91 -26.37,-13.6 -39.55,-20.11 -13.33,-6.57 -26.66,-12.97 -39.97,-19.13 -13.48,-6.25 -26.97,-12.27 -40.41,-18.12 -13.62,-5.92 -27.23,-11.66 -40.79,-17.17 -13.77,-5.61 -27.47,-10.97 -41.16,-16.16 -13.93,-5.3 -27.83,-10.44 -41.67,-15.32 -14.08,-4.98 -28.07,-9.71 -42,-14.28 -14.19,-4.65 -28.32,-9.13 -42.35,-13.37 -14.35,-4.35 -28.61,-8.52 -42.73,-12.45 -14.5,-4.04 -28.89,-7.86 -43.15,-11.5 -14.66,-3.73 -29.14,-7.26 -43.5,-10.59 -14.81,-3.42 -29.47,-6.67 -43.93,-9.69 -14.96,-3.11 -29.75,-6.05 -44.29,-8.76 -15.12,-2.81 -30.02,-5.41 -44.67,-7.8 -15.3,-2.49 -30.31,-4.76 -45.05,-6.84 -15.52,-2.18 -30.68,-4.1 -45.49,-5.85 -15.71,-1.83 -31.01,-3.42 -45.91,-4.83 -15.93,-1.5 -31.43,-2.76 -46.31,-3.8 -16.29,-1.12 -31.85,-2 -46.81,-2.64 -16.66,-0.73 -32.44,-1.2 -47.31,-1.42l-21.1 -0.17c-8.96,0 -17.9,0.08 -26.83,0.2 -16.2,0.22 -32.36,0.66 -48.42,1.3 -16.4,0.66 -32.73,1.5 -48.96,2.58 -16.62,1.1 -33.15,2.49 -49.61,4.06 -16.79,1.59 -33.5,3.36 -50.13,5.41 -17.04,2.09 -33.97,4.5 -50.82,7.08 -17.26,2.65 -34.43,5.5 -51.51,8.63 -17.5,3.2 -34.91,6.67 -52.21,10.38 -17.81,3.84 -35.47,7.96 -53.07,12.33 -18.07,4.48 -36.02,9.25 -53.84,14.28 -18.36,5.19 -36.59,10.66 -54.68,16.4 -18.7,5.94 -37.28,12.19 -55.68,18.74 -19.07,6.78 -37.98,13.88 -56.73,21.28 -19.47,7.68 -38.78,15.73 -57.91,24.1 -19.9,8.69 -39.61,17.77 -59.16,27.17 -20.39,9.82 -40.59,20.06 -60.57,30.63 -20.97,11.1 -41.74,22.63 -62.26,34.54 -21.65,12.61 -43.03,25.67 -64.15,39.16 -22.38,14.3 -44.49,29.04 -66.24,44.34 -23.4,16.42 -46.39,33.39 -69.03,50.91 -24.54,18.95 -48.61,38.55 -72.27,58.76 -26.09,22.29 -51.64,45.33 -76.6,69.09 -28.19,26.84 -55.65,54.55 -82.38,83.18 -31.61,33.86 -62.1,68.98 -91.54,105.22 -38.08,46.85 -74.28,95.63 -108.56,146.18 -34.32,50.65 -66.71,103.02 -97.04,157.08 -19.82,35.34 -39.77,70.58 -59.87,105.74 -52.62,92 -106.37,183.36 -161.42,273.78 -46.03,75.6 -93.05,150.59 -141.13,224.75 -41.23,63.58 -83.28,126.54 -126.23,188.82 -37.64,54.55 -75.98,108.56 -115.07,161.94 -34.92,47.68 -70.42,94.91 -106.62,141.56 -32.77,42.27 -66.11,84.06 -99.99,125.4 -30.99,37.78 -62.45,75.21 -94.41,112.17 -29.51,34.13 -59.47,67.84 -89.89,101.21 -28.33,31.1 -57.02,61.88 -86.17,92.32 -27.28,28.44 -54.9,56.58 -82.91,84.41 -26.38,26.19 -53.1,52.1 -80.13,77.7 -25.58,24.21 -51.46,48.13 -77.68,71.79 -24.92,22.49 -50.09,44.73 -75.59,66.71 -24.27,20.9 -48.81,41.56 -73.61,62.01 -13.18,10.85 -26.42,21.69 -39.78,32.42 -10.68,8.58 -21.43,17.1 -32.2,25.6 -23.42,18.52 -46.98,36.81 -70.68,54.88 -23.07,17.59 -46.23,35.03 -69.56,52.21 -22.67,16.71 -45.49,33.22 -68.41,49.54 -22.4,15.96 -44.91,31.76 -67.55,47.35 -22.11,15.23 -44.32,30.31 -66.64,45.18 -21.83,14.57 -43.77,28.96 -65.81,43.17 -21.65,13.97 -43.37,27.84 -65.19,41.48 -21.32,13.33 -42.75,26.41 -64.23,39.44 -21.15,12.8 -42.36,25.44 -63.65,37.94 -20.94,12.27 -41.95,24.45 -63.02,36.44 -20.7,11.76 -41.5,23.35 -62.34,34.82 -20.53,11.3 -41.12,22.43 -61.77,33.44 -20.35,10.86 -40.76,21.59 -61.24,32.18 -20.19,10.44 -40.43,20.79 -60.75,30.97 -20.02,10.02 -40.1,19.88 -60.22,29.66 -19.84,9.62 -39.73,19.09 -59.67,28.47 -19.71,9.25 -39.46,18.39 -59.27,27.39 -19.58,8.9 -39.18,17.72 -58.85,26.38 -19.43,8.56 -38.89,16.99 -58.42,25.33 -19.29,8.24 -38.6,16.34 -57.97,24.35 -19.15,7.9 -38.36,15.76 -57.61,23.44 -19.03,7.59 -38.12,15.05 -57.22,22.44 -18.92,7.31 -37.86,14.5 -56.85,21.57 -18.78,7.02 -37.61,13.9 -56.47,20.7 -18.67,6.73 -37.39,13.33 -56.14,19.86 -18.58,6.47 -37.19,12.8 -55.83,19.07 -18.45,6.2 -36.94,12.3 -55.45,18.28 -18.36,5.93 -36.77,11.78 -55.19,17.52 -18.28,5.7 -36.57,11.28 -54.88,16.8 -18.19,5.45 -36.37,10.81 -54.62,16.07 -18.07,5.2 -36.17,10.3 -54.28,15.33 -17.97,4.99 -35.98,9.89 -54,14.68 -17.88,4.75 -35.78,9.43 -53.69,13.99 -17.79,4.53 -35.6,8.97 -53.42,13.31 -17.7,4.33 -35.4,8.54 -53.16,12.69 -17.61,4.11 -35.27,8.13 -52.92,12.08 -17.52,3.9 -35.05,7.7 -52.6,11.43 -17.46,3.71 -34.94,7.33 -52.41,10.86 -17.37,3.51 -34.79,6.91 -52.17,10.24 -17.3,3.31 -34.61,6.55 -51.92,9.69 -17.22,3.11 -34.41,6.13 -51.64,9.09 -17.15,2.94 -34.27,5.83 -51.46,8.59 -17.06,2.73 -34.16,5.38 -51.24,7.97 -16.97,2.56 -33.96,5.03 -50.97,7.41 -16.91,2.38 -33.83,4.7 -50.77,6.91 -16.87,2.21 -33.71,4.33 -50.58,6.38 -16.78,2.03 -33.57,3.99 -50.36,5.87 -16.71,1.87 -33.39,3.66 -50.11,5.36 -16.64,1.7 -33.31,3.36 -49.96,4.9 -16.55,1.55 -33.13,3 -49.69,4.37 -16.51,1.37 -33.02,2.69 -49.52,3.91 -16.44,1.21 -32.91,2.36 -49.34,3.44 -16.36,1.06 -32.75,2.01 -49.12,2.91 -16.29,0.91 -32.58,1.7 -48.88,2.45 -16.24,0.75 -32.49,1.4 -48.74,1.99 -16.18,0.6 -32.36,1.08 -48.55,1.55 -16.11,0.44 -32.24,0.79 -48.35,1.1 -16.04,0.29 -32.09,0.51 -48.15,0.66 -15.62,0.13 -31.27,0.27 -46.89,0.27l-1.12 0c-15.96,0 -31.87,-0.16 -47.78,-0.31 -15.91,-0.13 -31.8,-0.36 -47.66,-0.64 -15.82,-0.29 -31.69,-0.53 -47.49,-0.95 -15.78,-0.42 -31.49,-1.02 -47.24,-1.57 -15.74,-0.55 -31.45,-1.17 -47.13,-1.87 -15.67,-0.69 -31.39,-1.35 -47,-2.17 -15.63,-0.81 -31.17,-1.81 -46.74,-2.76 -15.56,-0.95 -31.14,-1.98 -46.65,-3.06 -15.51,-1.09 -31.03,-2.17 -46.51,-3.38 -15.48,-1.22 -30.93,-2.61 -46.34,-3.95 -15.41,-1.35 -30.79,-2.76 -46.14,-4.24 -15.34,-1.48 -30.68,-2.96 -45.99,-4.57 -15.29,-1.61 -30.55,-3.38 -45.8,-5.1l-45.68 -5.38c-15.19,-1.86 -30.4,-3.73 -45.54,-5.72 -1250.04,-164.05 -2363.74,-760.86 -3185.72,-1635.59l-1.11 -1.14 -1.26 -1.31 -1.28 -1.36 -1.25 -1.33 -1.28 -1.35 -1.26 -1.32 -1.26 -1.32 -1.28 -1.33 -1.28 -1.37 -1.26 -1.3 -1.28 -1.34 -1.26 -1.35 -1.28 -1.33 -1.23 -1.34 -1.28 -1.35 -1.26 -1.34 -1.28 -1.35 -1.26 -1.33 -1.26 -1.34 -1.28 -1.35 -1.25 -1.37 -1.24 -1.32 -1.28 -1.37 -1.26 -1.37 -1.28 -1.34 -1.26 -1.37 -1.25 -1.37 -1.24 -1.32 -1.26 -1.37 -1.28 -1.37 -1.26 -1.39 -1.26 -1.37 -1.23 -1.35 -1.26 -1.39 -1.26 -1.39 -1.28 -1.39 -1.23 -1.37 -1.24 -1.39 -1.26 -1.41 -1.26 -1.39 -1.23 -1.39 -1.26 -1.43 -1.24 -1.4zm11851.36 -1070.98l0 -2.82 -0.89 -0.25c-2.47,-0.68 -10.39,-2.89 -23.15,-6.24l-23 -5.94 -22.95 -5.76 -22.93 -5.54 -22.87 -5.41 -22.82 -5.25 -22.71 -5.06 -22.78 -4.96 -22.66 -4.79 -22.65 -4.66 -22.62 -4.52 -22.54 -4.35 -22.58 -4.26 -22.42 -4.06 -22.45 -3.95 -22.42 -3.8 -22.36 -3.64 -22.33 -3.53 -22.23 -3.33 -22.27 -3.2 -22.14 -3.03 -22.13 -2.89 -22.12 -2.74 -22.05 -2.56 -22 -2.38 -21.92 -2.21 -21.85 -2.03 -21.87 -1.83 -21.81 -1.65 -21.74 -1.51 -21.69 -1.28 -21.61 -1.03 -21.52 -0.84 -21.47 -0.62 -21.46 -0.44 -21.36 -0.18 -21.28 0.11 -21.25 0.36 -21.08 0.59c-7.04,0.24 -14.06,0.51 -21.06,0.86l-20.99 1.15 -20.87 1.5 -20.82 1.81 -20.68 2.14 -20.63 2.47c-6.87,0.89 -13.71,1.79 -20.46,2.81 -6.85,1.01 -13.62,2.09 -20.35,3.24 -6.82,1.15 -13.58,2.43 -20.29,3.71 -6.77,1.3 -13.46,2.69 -20.13,4.13 -6.73,1.45 -13.39,2.98 -19.99,4.59 -6.69,1.63 -13.31,3.31 -19.87,5.1 -6.64,1.81 -13.22,3.68 -19.71,5.62 -6.57,1.99 -13.08,4.04 -19.48,6.21 -6.54,2.18 -12.98,4.45 -19.34,6.84 -6.49,2.43 -12.87,4.92 -19.16,7.55 -6.42,2.67 -12.71,5.47 -18.91,8.34 -6.33,2.96 -12.58,6 -18.69,9.18 -6.27,3.24 -12.41,6.62 -18.43,10.11 -6.16,3.57 -12.19,7.28 -18.06,11.1 -6.07,3.95 -12,8.03 -17.77,12.27l-0.02 0.02c-5.91,4.35 -11.69,8.77 -17.52,13.16l-17.5 13.31 -17.44 13.61 -17.33 13.84 -17.3 14.06 -17.13 14.37 -17.1 14.59 -17.06 14.9 -16.95 15.18 -16.91 15.41c-5.65,5.21 -11.19,10.46 -16.75,15.71l-16.77 16.05 -16.6 16.13c-5.59,5.52 -11.06,11.08 -16.56,16.64l-16.48 16.84c-5.5,5.68 -11.02,11.35 -16.42,17.06 -5.52,5.83 -10.91,11.68 -16.31,17.53l-16.18 17.68 -16.14 17.96 -16.06 18.39 -15.94 18.67 -15.89 18.96 -15.8 19.2 -15.67 19.67c-5.26,6.62 -10.42,13.28 -15.54,19.93l-15.49 20.24 -15.43 20.59 -15.3 20.94c-5.14,7.11 -10.17,14.24 -15.18,21.35l-15.1 21.67 -14.96 22.03 -14.9 22.38 -14.74 22.75 -14.7 23.2 -14.53 23.55c-4.9,8.03 -9.73,16.02 -14.45,23.99l-14.33 24.41 -14.14 24.76 -14.06 25.25 -13.93 25.71 -13.79 26.23c-4.66,8.96 -9.23,17.85 -13.67,26.68l-13.5 27.17 -13.4 27.7 -13.18 28.14c-4.48,9.73 -8.83,19.29 -13.04,28.76 -4.44,9.95 -8.72,19.75 -12.87,29.37 -4.39,10.22 -8.65,20.22 -12.71,30.04 -4.35,10.46 -8.54,20.7 -12.52,30.68 -4.3,10.77 -8.38,21.21 -12.29,31.36 -4.26,11.08 -8.28,21.79 -12.07,32.09 -4.24,11.5 -8.17,22.54 -11.85,33.02 -4.2,11.99 -8.06,23.38 -11.55,33.93 -4.26,12.84 -7.99,24.56 -11.25,35.11 -4.51,14.59 -8.08,26.84 -10.82,36.53 -4.68,16.66 -6.84,25.67 -6.84,25.67l12.34 -6.54 18.49 -9.77 18.52 -9.8 18.54 -9.58 18.63 -9.36 18.6 -9.36 18.68 -9.18 18.76 -8.92 18.78 -8.91 18.8 -8.72 18.85 -8.45 18.85 -8.44 18.96 -8.25 19.02 -8.01 19.03 -7.99 19.11 -7.73 19.16 -7.5 19.14 -7.5 19.22 -7.11 19.31 -7.04c6.42,-2.32 12.96,-4.77 19.34,-7 6.53,-2.27 12.93,-4.32 19.42,-6.53l19.47 -6.56 19.44 -6.29 19.6 -6.02c6.51,-1.99 13.11,-4.11 19.58,-6.01l19.7 -5.58 19.74 -5.52 19.79 -5.29 19.91 -4.99c6.6,-1.64 13.31,-3.42 19.84,-4.97 6.74,-1.59 13.31,-2.96 20,-4.46l20.06 -4.43 20.13 -4.11 20.22 -3.88 20.24 -3.69c6.84,-1.19 13.62,-2.25 20.39,-3.33 6.8,-1.11 13.62,-2.23 20.35,-3.22 6.89,-1.02 13.66,-1.84 20.48,-2.74 6.84,-0.91 13.77,-1.94 20.55,-2.74 6.97,-0.81 13.79,-1.43 20.7,-2.16 6.89,-0.73 13.89,-1.55 20.71,-2.16 7.04,-0.64 13.92,-1.04 20.87,-1.57 6.94,-0.51 13.95,-1.15 20.8,-1.57 7.1,-0.42 14.05,-0.64 21.07,-0.95 7.02,-0.31 14.08,-0.72 21.01,-0.92 7.18,-0.2 14.2,-0.22 21.26,-0.31 7.11,-0.11 14.24,-0.22 21.25,-0.2 7.22,0.04 14.33,0.2 21.43,0.35 7.2,0.16 14.37,0.31 21.48,0.58 7.24,0.26 14.39,0.59 21.52,0.99 7.3,0.4 14.54,0.88 21.74,1.41 7.28,0.53 14.63,1.02 21.8,1.68 7.44,0.68 14.68,1.52 21.99,2.34 7.39,0.82 14.81,1.63 22.09,2.58 7.44,0.97 14.83,2.01 22.14,3.11 7.55,1.13 15.01,2.39 22.42,3.64 7.51,1.28 15.01,2.56 22.38,3.98 7.62,1.45 15.16,3 22.65,4.59 7.7,1.65 15.27,3.4 22.82,5.18 7.72,1.81 15.38,3.69 22.93,5.65 7.77,2.01 15.52,4.04 23.11,6.18 7.86,2.23 15.56,4.62 23.24,6.98 7.94,2.45 15.76,4.99 23.5,7.57 7.99,2.69 15.87,5.41 23.66,8.23 8.08,2.92 16.05,5.92 23.91,8.98 8.14,3.18 16.22,6.43 24.12,9.74 8.23,3.46 16.38,6.97 24.35,10.57 8.36,3.77 16.57,7.59 24.63,11.5 8.45,4.08 16.7,8.25 24.83,12.47 8.58,4.46 16.97,8.98 25.2,13.55 8.72,4.83 17.22,9.76 25.54,14.7 8.85,5.28 17.48,10.55 25.89,15.91 9,5.72 17.79,11.48 26.28,17.28 9.21,6.27 18.12,12.61 26.75,18.92 9.38,6.86 18.45,13.77 27.17,20.61 9.71,7.66 18.96,15.23 27.83,22.76 10.05,8.54 19.58,16.93 28.56,25.18 10.51,9.67 20.35,19.12 29.45,28.23 11.27,11.32 21.45,22.14 30.56,32.25 12.87,14.28 23.6,27.14 32.25,38.07 18.47,23.35 27.52,37.85 27.52,37.85l3.58 -3.82c5.47,-5.74 10.9,-11.58 16.2,-17.61 5.38,-6.16 10.7,-12.43 15.91,-18.89 5.28,-6.54 10.44,-13.25 15.54,-20.09 5.16,-6.95 10.22,-14.03 15.21,-21.3 5.05,-7.35 9.99,-14.85 14.85,-22.49 4.94,-7.77 9.78,-15.67 14.52,-23.72 4.81,-8.17 9.56,-16.47 14.17,-24.92 4.68,-8.54 9.27,-17.22 13.75,-26.04 4.59,-9.01 9.07,-18.15 13.47,-27.42 4.45,-9.42 8.8,-18.98 13.06,-28.67 4.35,-9.86 8.59,-19.86 12.74,-29.97 4.21,-10.26 8.36,-20.66 12.38,-31.14 4.1,-10.71 8.12,-21.48 12.03,-32.4 3.97,-11.13 7.85,-22.38 11.63,-33.7 3.86,-11.57 7.57,-23.24 11.21,-34.99 3.73,-12 7.37,-24.12 10.9,-36.3 3.6,-12.47 7.11,-24.97 10.51,-37.57 3.49,-12.95 6.84,-26.02 10.11,-39.11 3.35,-13.39 6.62,-26.84 9.75,-40.3 3.23,-13.9 6.32,-27.85 9.32,-41.8 3.09,-14.33 6.07,-28.65 8.91,-42.97 2.98,-14.92 5.81,-29.8 8.52,-44.68 2.83,-15.36 5.54,-30.7 8.1,-45.96 2.7,-15.96 5.23,-31.85 7.66,-47.64 2.54,-16.49 4.92,-32.86 7.2,-49.1 2.38,-17.06 4.63,-33.92 6.75,-50.62 2.25,-17.74 4.33,-35.27 6.27,-52.52 2.05,-18.34 3.99,-36.35 5.76,-54 1.92,-19.11 3.64,-37.83 5.23,-56 1.74,-20 3.27,-39.35 4.66,-58.02 1.54,-20.96 2.93,-41.09 4.08,-60.11 1.37,-22.42 2.43,-43.3 3.33,-62.58 1.15,-24.72 1.95,-46.67 2.52,-65.41 1.13,-37.21 1.32,-61.77 1.35,-69.69zm68.94 -1646.73l3.77 3 -1.21 -9.16c-3.93,-29.6 -7.84,-58.57 -11.81,-87 -4.06,-28.95 -8.19,-57.35 -12.56,-85.22 -4.37,-27.92 -8.94,-55.33 -13.86,-82.3 -4.81,-26.37 -9.98,-52.34 -15.58,-77.94 -5.41,-24.68 -11.26,-49.01 -17.59,-73.07 -6.05,-22.93 -12.58,-45.57 -19.69,-68.03 -6.71,-21.21 -13.93,-42.22 -21.74,-63.12 -7.33,-19.59 -15.21,-39.08 -23.64,-58.45 -7.92,-18.19 -16.35,-36.31 -25.36,-54.37 -8.45,-16.93 -17.39,-33.84 -26.88,-50.69 -8.92,-15.85 -18.32,-31.67 -28.23,-47.49 -9.31,-14.87 -19.09,-29.75 -29.35,-44.65 -9.69,-14.06 -19.82,-28.12 -30.42,-42.2 -8.96,-11.96 -18.25,-23.94 -27.92,-35.95l-3.37 -4.17c-10.49,-12.98 -21.15,-25.83 -31.92,-38.56 -10.66,-12.58 -21.45,-25.03 -32.4,-37.39 -10.81,-12.2 -21.81,-24.3 -32.88,-36.28 -10.97,-11.86 -22.05,-23.57 -33.29,-35.18 -11.12,-11.5 -22.38,-22.87 -33.77,-34.13 -11.27,-11.14 -22.66,-22.16 -34.18,-33.08 -11.42,-10.82 -22.96,-21.54 -34.61,-32.11 -11.54,-10.49 -23.22,-20.86 -34.98,-31.1 -11.7,-10.18 -23.51,-20.24 -35.41,-30.15 -11.83,-9.87 -23.77,-19.62 -35.8,-29.22 -11.96,-9.56 -24.01,-18.98 -36.15,-28.28 -12.11,-9.27 -24.34,-18.4 -36.64,-27.41 -12.22,-8.96 -24.52,-17.76 -36.92,-26.48 -12.36,-8.65 -24.79,-17.17 -37.32,-25.58 -12.47,-8.37 -25.01,-16.6 -37.63,-24.7 -12.61,-8.08 -25.27,-16.02 -38.03,-23.84 -12.71,-7.79 -25.54,-15.45 -38.4,-22.95 -12.85,-7.51 -25.76,-14.88 -38.76,-22.12 -12.98,-7.21 -26,-14.28 -39.11,-21.23 -13.07,-6.93 -26.24,-13.68 -39.46,-20.35l-3.93 -1.98c-11.92,-5.96 -23.88,-11.75 -35.91,-17.44 -13.36,-6.31 -26.8,-12.47 -40.28,-18.43 -13.51,-5.98 -27.04,-11.79 -40.68,-17.41 -13.64,-5.65 -27.34,-11.15 -41.12,-16.45 -13.77,-5.29 -27.61,-10.41 -41.49,-15.38 -13.93,-4.97 -27.9,-9.8 -41.93,-14.43 -14.11,-4.66 -28.23,-9.12 -42.43,-13.42 -14.21,-4.31 -28.49,-8.43 -42.79,-12.39 -14.35,-3.97 -28.72,-7.76 -43.15,-11.38 -14.5,-3.65 -29.05,-7.11 -43.61,-10.38 -14.64,-3.29 -29.31,-6.42 -44.03,-9.36 -14.79,-2.95 -29.6,-5.76 -44.43,-8.34 -14.94,-2.6 -29.89,-5.03 -44.89,-7.28 -15.08,-2.27 -30.22,-4.35 -45.34,-6.25 -15.23,-1.92 -30.48,-3.64 -45.75,-5.18 -15.39,-1.55 -30.79,-2.94 -46.21,-4.11 -15.54,-1.19 -31.1,-2.18 -46.67,-2.98 -15.71,-0.82 -31.43,-1.43 -47.13,-1.85 -15.87,-0.42 -31.74,-0.69 -47.62,-0.71 -16.05,-0.04 -32.09,0.16 -48.11,0.51 -16.22,0.37 -32.42,0.95 -48.61,1.72 -16.37,0.79 -32.77,1.79 -49.12,2.98 -16.57,1.21 -33.15,2.67 -49.69,4.3 -16.78,1.68 -33.53,3.56 -50.25,5.65 -16.97,2.14 -33.94,4.48 -50.84,7.07 -17.17,2.62 -34.32,5.45 -51.41,8.54 -17.42,3.13 -34.79,6.53 -52.13,10.15 -17.65,3.69 -35.27,7.61 -52.8,11.79 -17.88,4.26 -35.71,8.74 -53.47,13.48 -18.21,4.88 -36.31,10.07 -54.37,15.47 -18.45,5.54 -36.82,11.33 -55.13,17.4 -9.66,3.2 -19.33,6.48 -28.95,9.86 -9.07,3.18 -18.08,6.42 -27.08,9.73 -19.18,7.04 -38.21,14.42 -57.05,22.05 -19.55,7.9 -38.93,16.14 -58.12,24.63 -19.93,8.83 -39.69,17.97 -59.25,27.39 -20.35,9.8 -40.5,19.89 -60.49,30.33 -20.77,10.84 -41.38,22 -61.79,33.46 -21.23,11.92 -42.29,24.15 -63.13,36.7 -21.72,13.07 -43.2,26.47 -64.53,40.17 -22.22,14.28 -44.25,28.87 -66.07,43.79 -22.73,15.52 -45.27,31.34 -67.59,47.47 -23.27,16.79 -46.3,33.94 -69.19,51.32 -23.77,18.08 -47.35,36.46 -70.74,55.1 -24.31,19.38 -48.42,39.03 -72.34,58.9 -24.81,20.62 -49.43,41.52 -73.89,62.56 -25.25,21.74 -50.33,43.68 -75.25,65.79 -25.58,22.69 -50.97,45.53 -76.27,68.45 -25.84,23.46 -51.57,47.02 -77.17,70.6 -26,23.94 -51.9,47.92 -77.72,71.87l-58.11 53.89 -19.7 18.3 -77.88 72.2 -77.82 72.1 -77.63 71.7 -77.44 71.21 -77.13 70.46c-25.55,23.26 -51.12,46.45 -76.77,69.6 -25.41,22.94 -50.82,45.78 -76.33,68.57 -25.23,22.53 -50.52,45.02 -75.87,67.39 -25.03,22.12 -50.14,44.14 -75.32,66.07 -24.83,21.63 -49.7,43.2 -74.68,64.64 -24.63,21.17 -49.32,42.22 -74.13,63.2 -24.39,20.64 -48.9,41.18 -73.46,61.61 -24.19,20.11 -48.44,40.11 -72.83,60.03 -23.92,19.55 -47.92,38.99 -72.05,58.32 -23.7,19 -47.53,37.92 -71.43,56.69 -15.94,12.54 -31.89,24.98 -47.91,37.41l-22.84 17.66c-23.35,18.03 -46.76,35.99 -70.22,53.86 -23.22,17.68 -46.52,35.27 -69.85,52.81 -23.1,17.37 -46.27,34.65 -69.46,51.88 -22.94,17.01 -45.91,33.92 -68.97,50.79 -22.82,16.71 -45.68,33.33 -68.58,49.9 -22.69,16.39 -45.45,32.73 -68.24,48.98 -22.58,16.12 -45.2,32.14 -67.85,48.11 -22.45,15.82 -44.96,31.56 -67.51,47.24 -22.34,15.54 -44.74,31.03 -67.15,46.43 -22.25,15.27 -44.52,30.46 -66.85,45.62 -22.11,15.01 -44.27,29.97 -66.46,44.85 -22.03,14.76 -44.08,29.44 -66.18,44.07 -21.92,14.53 -43.9,29.01 -65.9,43.4 -21.83,14.28 -43.7,28.47 -65.6,42.64 -21.72,14.03 -43.48,28.01 -65.26,41.93l-42.24 26.86 -22.8 14.39c-21.54,13.6 -43.13,27.13 -64.77,40.59 -21.41,13.31 -42.88,26.57 -64.39,39.75 -21.32,13.07 -42.64,26.07 -64.07,38.98 -21.18,12.8 -42.46,25.51 -63.73,38.18 -21.1,12.54 -42.24,25.01 -63.42,37.41 -20.99,12.27 -42,24.48 -63.07,36.59 -20.88,12.01 -41.78,23.93 -62.73,35.78 -20.75,11.74 -41.56,23.38 -62.41,34.96 -20.66,11.48 -41.34,22.89 -62.08,34.19 -20.54,11.21 -41.16,22.34 -61.79,33.39 -20.43,10.93 -40.89,21.81 -61.41,32.58 -20.3,10.66 -40.65,21.23 -61.04,31.74 -20.19,10.39 -40.45,20.68 -60.73,30.92 -20.1,10.13 -40.23,20.19 -60.42,30.15 -19.97,9.86 -40.01,19.62 -60.06,29.31 -19.87,9.6 -39.75,19.13 -59.7,28.54 -19.77,9.33 -39.59,18.58 -59.42,27.74 -19.67,9.07 -39.36,18.03 -59.08,26.93 -19.55,8.8 -39.15,17.52 -58.76,26.15 -19.45,8.54 -38.91,17.04 -58.41,25.4 -19.34,8.28 -38.69,16.43 -58.09,24.55 -19.22,8.03 -38.49,16 -57.79,23.83 -19.11,7.77 -38.27,15.45 -57.44,23.05 -19.05,7.52 -38.12,14.96 -57.22,22.31 -18.91,7.28 -37.87,14.46 -56.84,21.54 -18.83,7.02 -37.66,13.97 -56.54,20.81 -18.69,6.78 -37.43,13.47 -56.21,20.04 -213.2,74.82 -430.68,137.54 -652.59,185.42 -853.26,184.21 -1726.15,106.66 -2559.57,-139.42 -443.07,-130.87 -871.03,-312.43 -1273.12,-539.91 0.95,7.77 1.86,15.65 2.76,23.51 915.1,1144.97 2292.77,1904.29 3849.82,1995.9 15.6,0.93 31.25,1.63 46.89,2.43 15.67,0.77 31.32,1.59 47,2.23 15.72,0.64 31.45,1.21 47.18,1.72 15.8,0.53 31.61,0.93 47.42,1.3 15.83,0.38 31.63,0.8 47.47,1.04 15.89,0.24 31.84,0.29 47.75,0.4 11.5,0.06 22.97,0.24 34.49,0.24l13.33 -0.05c16.03,-0.04 32.03,-0.13 48.04,-0.33 16.07,-0.17 32.16,-0.44 48.22,-0.77 16.13,-0.33 32.27,-0.71 48.39,-1.19 16.22,-0.49 32.4,-1.08 48.61,-1.7 16.27,-0.64 32.51,-1.32 48.75,-2.1 16.33,-0.77 32.66,-1.61 48.96,-2.54 16.4,-0.92 32.8,-1.98 49.19,-3.06 16.46,-1.11 32.91,-2.28 49.34,-3.51 16.51,-1.24 33.04,-2.56 49.54,-3.98 16.6,-1.41 33.19,-2.89 49.76,-4.45 16.68,-1.57 33.3,-3.25 49.96,-4.97 16.73,-1.74 33.48,-3.55 50.18,-5.45 16.79,-1.92 33.59,-3.86 50.35,-5.92 16.89,-2.07 33.73,-4.26 50.58,-6.48 16.95,-2.23 33.88,-4.57 50.8,-6.98 17.01,-2.43 34.05,-4.94 51.04,-7.53 17.08,-2.6 34.16,-5.29 51.21,-8.05 17.17,-2.8 34.32,-5.63 51.46,-8.59 17.26,-2.98 34.5,-6.02 51.71,-9.16 17.37,-3.15 34.69,-6.42 52.01,-9.75 17.39,-3.36 34.8,-6.73 52.16,-10.26 17.48,-3.56 34.96,-7.2 52.41,-10.93 17.57,-3.75 35.14,-7.55 52.67,-11.48 17.68,-3.95 35.32,-8.03 52.94,-12.16 17.75,-4.17 35.49,-8.39 53.18,-12.73 17.84,-4.37 35.67,-8.83 53.45,-13.38 17.94,-4.59 35.84,-9.29 53.73,-14.08 18.03,-4.81 36.02,-9.71 54,-14.72 18.14,-5.03 36.26,-10.22 54.33,-15.45 18.23,-5.28 36.42,-10.64 54.57,-16.11 18.34,-5.54 36.66,-11.19 54.92,-16.91 18.43,-5.78 36.84,-11.61 55.19,-17.59 18.54,-6.02 37.06,-12.2 55.55,-18.45 18.65,-6.29 37.3,-12.67 55.87,-19.18 18.78,-6.58 37.57,-13.26 56.27,-20.06 18.89,-6.84 37.77,-13.82 56.58,-20.88 19,-7.15 37.99,-14.37 56.91,-21.74 19.16,-7.44 38.27,-15.01 57.33,-22.69 19.25,-7.75 38.49,-15.63 57.66,-23.59 19.43,-8.1 38.78,-16.29 58.11,-24.61 19.55,-8.41 39.06,-16.95 58.52,-25.61 19.71,-8.76 39.37,-17.63 58.96,-26.64 19.87,-9.13 39.64,-18.38 59.39,-27.76 20.04,-9.51 40.01,-19.16 59.91,-28.94l14.37 -7.04c15.31,-7.57 30.68,-15.27 46.01,-23.02 20.23,-10.24 40.5,-20.59 60.79,-31.12 20.42,-10.59 40.83,-21.3 61.24,-32.2 20.59,-10.97 41.18,-22.09 61.76,-33.37 20.75,-11.37 41.5,-22.89 62.23,-34.56 20.95,-11.77 41.87,-23.71 62.76,-35.8 21.13,-12.21 42.2,-24.59 63.27,-37.13 21.34,-12.69 42.64,-25.49 63.89,-38.49 21.54,-13.15 43.01,-26.48 64.46,-39.97 21.76,-13.7 43.5,-27.52 65.14,-41.53 21.98,-14.24 43.94,-28.63 65.81,-43.2 22.27,-14.83 44.45,-29.82 66.55,-45 22.6,-15.52 45.07,-31.21 67.46,-47.07 22.91,-16.24 45.71,-32.66 68.39,-49.25 23.22,-17 46.34,-34.17 69.29,-51.53 23.62,-17.87 47.05,-35.95 70.36,-54.21 24.08,-18.9 47.95,-37.97 71.65,-57.25 24.57,-19.99 48.92,-40.23 73.07,-60.66 25.16,-21.3 50.04,-42.82 74.68,-64.57 25.86,-22.84 51.41,-45.96 76.64,-69.31 26.73,-24.75 53.07,-49.79 79.02,-75.08 27.81,-27.1 55.17,-54.51 82.03,-82.23 29.27,-30.19 57.91,-60.77 85.96,-91.69 31.25,-34.45 61.7,-69.34 91.3,-104.65 34.4,-41.08 67.7,-82.71 99.7,-124.91 14.28,-18.83 28.32,-37.79 42.09,-56.85 24.74,-34.25 48.86,-68.89 72.47,-103.88 46.63,-69.02 91.3,-139.29 135.09,-210.16 51.26,-82.97 101.29,-166.75 151.7,-250.27 47.81,-79.23 95.97,-158.28 145.89,-236.16 40.28,-62.84 81.69,-125 125,-185.9l14.54 -20.35c29.89,-41.45 60.71,-82.25 92.56,-122.33 30.85,-38.87 62.6,-77 95.31,-114.32 28.45,-32.44 57.57,-64.24 87.41,-95.34 26.71,-27.8 53.98,-55.07 81.83,-81.71 25.34,-24.24 51.11,-47.93 77.37,-71.06 24.22,-21.3 48.82,-42.16 73.82,-62.48 23.26,-18.89 46.87,-37.34 70.84,-55.32 22.47,-16.86 45.27,-33.3 68.37,-49.29 21.78,-15.12 43.85,-29.8 66.2,-44.1 17.39,-11.13 34.94,-22.03 52.67,-32.67l11.57 -6.75c20.66,-12.18 41.49,-24.01 62.54,-35.31 20.1,-10.82 40.43,-21.21 60.86,-31.26 19.66,-9.64 39.53,-18.91 59.47,-27.85 19.33,-8.65 38.73,-17.08 58.3,-25.07 18.92,-7.71 37.96,-15.03 57.07,-22.12 18.65,-6.93 37.36,-13.64 56.2,-19.97 18.3,-6.16 36.7,-11.94 55.15,-17.55 18.07,-5.49 36.21,-10.75 54.41,-15.71 17.81,-4.84 35.69,-9.43 53.63,-13.78 17.56,-4.26 35.2,-8.25 52.87,-12.05 17.39,-3.7 34.8,-7.28 52.27,-10.55 17.2,-3.22 34.46,-6.18 51.71,-8.96 16.99,-2.71 33.99,-5.18 51.01,-7.5 16.8,-2.27 33.62,-4.39 50.47,-6.25 16.62,-1.83 33.31,-3.53 49.98,-4.99 16.44,-1.43 32.93,-2.6 49.41,-3.64 16.31,-1.03 32.64,-1.85 48.96,-2.51 16.14,-0.67 32.32,-1.15 48.46,-1.44 16.03,-0.28 32.05,-0.42 48.06,-0.35 15.87,0.07 31.76,0.26 47.62,0.68 15.74,0.4 31.47,1.02 47.2,1.77 15.58,0.73 31.19,1.65 46.76,2.71 15.49,1.06 30.94,2.28 46.38,3.67 15.34,1.37 30.68,2.89 45.99,4.57 15.23,1.67 30.43,3.48 45.64,5.47 15.12,1.99 30.22,4.06 45.29,6.36 15.01,2.27 30,4.72 44.96,7.3 14.85,2.56 29.69,5.3 44.49,8.15 14.77,2.84 29.49,5.87 44.19,9 14.63,3.14 29.24,6.4 43.83,9.82 14.53,3.4 29.03,6.95 43.48,10.64 14.44,3.69 28.83,7.5 43.17,11.48 14.33,3.97 28.59,8.03 42.82,12.27 14.19,4.24 28.36,8.56 42.49,13.07 14.08,4.5 28.14,9.11 42.13,13.88 14,4.77 27.92,9.66 41.83,14.72 13.88,5.03 27.7,10.24 41.47,15.56 13.77,5.32 27.45,10.77 41.12,16.35 13.68,5.59 27.28,11.3 40.83,17.15 13.55,5.87 27.03,11.83 40.45,17.95 13.44,6.11 26.8,12.38 40.11,18.76 13.31,6.4 26.59,12.93 39.79,19.6 13.22,6.68 26.38,13.46 39.44,20.41 13.11,6.95 26.16,14.04 39.11,21.26 12.98,7.24 25.91,14.56 38.74,22.07 12.86,7.52 25.64,15.23 38.35,23.02 12.76,7.83 25.41,15.82 37.99,23.92 12.62,8.12 25.18,16.4 37.63,24.79 12.51,8.43 24.94,16.99 37.26,25.69 12.4,8.76 24.72,17.66 36.92,26.68 12.27,9.07 24.43,18.23 36.48,27.57 12.12,9.38 24.15,18.89 36.05,28.54zm-720.17 3815.43l18.76 -33.9c8.32,-14.81 16.58,-29.6 24.44,-44.85 49.05,-90.17 95.69,-181.65 140.52,-275 -8.93,-8.08 -17.96,-16.04 -27.1,-23.88 -11.7,-10.06 -23.57,-19.93 -35.6,-29.62 -11.92,-9.6 -24.01,-19.02 -36.22,-28.25 -12.11,-9.14 -24.34,-18.1 -36.75,-26.88 -12.29,-8.7 -24.74,-17.2 -37.32,-25.54 -12.49,-8.25 -25.09,-16.33 -37.85,-24.23 -12.67,-7.84 -25.45,-15.5 -38.38,-22.96 -12.85,-7.41 -25.87,-14.61 -38.96,-21.63 -13.04,-6.99 -26.19,-13.81 -39.46,-20.41 -13.22,-6.58 -26.53,-12.98 -39.97,-19.16 -13.37,-6.16 -26.88,-12.09 -40.48,-17.85 -13.57,-5.74 -27.23,-11.28 -41.01,-16.62 -13.75,-5.34 -27.58,-10.47 -41.53,-15.39 -13.95,-4.92 -28.01,-9.62 -42.14,-14.12 -14.1,-4.51 -28.29,-8.79 -42.57,-12.85 -14.28,-4.06 -28.65,-7.94 -43.11,-11.59 -14.45,-3.64 -29.02,-7.06 -43.65,-10.26 -14.66,-3.2 -29.4,-6.18 -44.21,-8.94 -14.83,-2.76 -29.75,-5.32 -44.74,-7.63 -15.03,-2.32 -30.13,-4.37 -45.31,-6.23 -15.23,-1.85 -30.52,-3.46 -45.91,-4.85 -15.43,-1.39 -30.92,-2.54 -46.47,-3.45 -15.63,-0.9 -31.34,-1.54 -47.07,-1.96 -12.62,-0.33 -25.29,-0.51 -37.98,-0.51l-9.73 0.02c-16.2,0.11 -32.34,0.51 -48.37,1.13 -16.42,0.64 -32.78,1.57 -49.04,2.74 -16.66,1.21 -33.23,2.67 -49.73,4.43 -16.93,1.81 -33.79,3.91 -50.54,6.31 -17.21,2.45 -34.34,5.19 -51.32,8.26 -17.55,3.16 -34.99,6.64 -52.28,10.42 -17.85,3.9 -35.58,8.1 -53.16,12.64 -18.21,4.7 -36.28,9.78 -54.19,15.19 -18.61,5.6 -37.08,11.59 -55.35,17.92 -14.43,5.01 -28.76,10.24 -42.97,15.69l-13.6 5.23c-19.51,7.62 -38.84,15.67 -57.9,24.1 -20.06,8.88 -39.88,18.19 -59.45,27.92 -20.75,10.33 -41.23,21.17 -61.39,32.45 -21.54,12.05 -42.73,24.63 -63.56,37.74 -22.51,14.17 -44.62,28.94 -66.26,44.3 -23.78,16.84 -46.98,34.38 -69.69,52.6 -25.54,20.51 -50.38,41.89 -74.48,64.04 -12.67,11.64 -25.12,23.51 -37.35,35.58 -9.8,9.29 -32.31,38.87 -53.95,69.03 -20.22,28.19 -39.69,56.89 -47.27,70.09 -30.79,53.13 -62.51,105.69 -95.09,157.63 -41.69,66.45 -84.79,131.91 -129.31,196.28l-8.05 11.61c-34.39,49.69 -69.69,98.73 -105.71,147.17 -33.97,45.71 -68.68,90.83 -104.08,135.4 -31.85,40.1 -64.26,79.73 -97.21,118.9 -30.26,35.96 -60.95,71.53 -92.14,106.66 -28.93,32.6 -58.25,64.79 -87.98,96.69 -27.88,29.9 -56.14,59.42 -84.7,88.69 -27.08,27.72 -54.4,55.21 -82.05,82.34 -26.29,25.78 -52.83,51.24 -79.62,76.48 -25.65,24.13 -51.53,47.98 -77.64,71.59 -25.09,22.71 -50.36,45.25 -75.87,67.46 -24.56,21.41 -49.32,42.58 -74.28,63.54 -24.06,20.19 -48.3,40.12 -72.74,59.89 -23.66,19.15 -47.48,38.09 -71.47,56.84 -23.29,18.21 -46.74,36.24 -70.33,54.07 -22.94,17.32 -45.99,34.49 -69.23,51.45 -22.65,16.54 -45.4,32.91 -68.3,49.1 -22.31,15.78 -44.76,31.39 -67.33,46.81 -22.05,15.07 -44.21,30.01 -66.47,44.76 -21.78,14.41 -43.68,28.67 -65.67,42.77 -21.52,13.79 -43.13,27.43 -64.86,40.94 -21.3,13.22 -42.68,26.31 -64.15,39.22 -21.08,12.69 -42.26,25.23 -63.51,37.61 -20.88,12.16 -41.82,24.21 -62.87,36.09 -20.68,11.67 -41.43,23.21 -62.25,34.62 -20.5,11.22 -41.05,22.34 -61.7,33.29 -20.33,10.77 -40.7,21.47 -61.17,32 -20.15,10.35 -40.37,20.64 -60.64,30.75 -19.95,9.93 -40,19.66 -60.07,29.35 -19.8,9.56 -39.73,18.94 -59.65,28.25 -19.66,9.18 -39.37,18.23 -59.16,27.17 -19.53,8.83 -39.11,17.59 -58.74,26.18 -19.45,8.49 -38.89,16.97 -58.44,25.25 -19.22,8.14 -38.55,16.11 -57.88,24.03 -19.09,7.81 -38.27,15.49 -57.46,23.09 -19,7.52 -38.05,14.92 -57.16,22.22 -18.89,7.22 -37.8,14.44 -56.8,21.46 -18.73,6.93 -37.54,13.75 -56.36,20.46 -18.6,6.64 -37.3,13.11 -56,19.55 -18.54,6.38 -37.1,12.65 -55.72,18.83 -18.45,6.11 -36.93,12.22 -55.43,18.14 -18.3,5.85 -36.64,11.52 -55.02,17.17 -18.2,5.61 -36.46,11.04 -54.72,16.44 -18.12,5.37 -36.29,10.71 -54.49,15.87 -18.01,5.12 -36.04,10.18 -54.13,15.1 -17.89,4.88 -35.84,9.58 -53.82,14.28 -17.83,4.66 -35.71,9.27 -53.62,13.75 -17.77,4.46 -35.53,8.89 -53.38,13.15 -17.61,4.22 -35.31,8.24 -52.98,12.27 -17.57,4.02 -35.16,7.97 -52.81,11.81 -17.5,3.82 -35,7.59 -52.56,11.24 -17.37,3.59 -34.78,6.99 -52.21,10.41 -17.33,3.4 -34.67,6.8 -52.06,10.05 -17.23,3.22 -34.51,6.33 -51.79,9.38 -17.14,3.02 -34.36,5.91 -51.54,8.76 -17.13,2.85 -34.28,5.69 -51.44,8.36 -17,2.65 -34.03,5.15 -51.06,7.64 -16.93,2.47 -33.9,4.83 -50.87,7.15 -16.88,2.3 -33.74,4.64 -50.68,6.78 -16.78,2.12 -33.6,4.01 -50.4,5.98 -16.76,1.96 -33.49,3.93 -50.27,5.71 -16.64,1.79 -33.31,3.45 -49.98,5.08 -16.58,1.61 -33.17,3.11 -49.81,4.59 -16.55,1.46 -33.08,2.96 -49.69,4.28 -16.42,1.31 -32.89,2.39 -49.36,3.53 -16.4,1.15 -32.82,2.28 -49.26,3.29 -16.31,1 -32.68,1.84 -49.03,2.67 -16.26,0.84 -32.55,1.62 -48.85,2.3 -16.22,0.68 -32.45,1.35 -48.68,1.9 -16.11,0.53 -32.29,0.88 -48.41,1.3 -16.14,0.4 -32.27,0.84 -48.44,1.1 -16,0.25 -32.07,0.27 -48.08,0.38 -11.7,0.06 -23.35,0.26 -35.05,0.26l-12.96 -0.04c-15.93,-0.04 -31.87,-0.16 -47.77,-0.33 -15.89,-0.18 -31.76,-0.42 -47.6,-0.75 -15.82,-0.31 -31.6,-0.71 -47.37,-1.15 -15.79,-0.46 -31.54,-0.95 -47.27,-1.54 -15.71,-0.6 -31.41,-1.24 -47.09,-1.97 -15.67,-0.73 -31.3,-1.54 -46.91,-2.38 -15.61,-0.86 -31.17,-1.77 -46.74,-2.76 -15.54,-1 -31.1,-2.03 -46.6,-3.16 -15.5,-1.12 -30.97,-2.34 -46.43,-3.57 -15.45,-1.26 -30.86,-2.61 -46.25,-3.98 -15.38,-1.39 -30.77,-2.8 -46.1,-4.32l-45.94 -4.75c-15.27,-1.63 -30.57,-3.33 -45.8,-5.12 -15.23,-1.76 -30.43,-3.6 -45.62,-5.49 -15.18,-1.9 -30.32,-3.84 -45.46,-5.87 -15.12,-2.01 -30.24,-4.11 -45.34,-6.25 -15.07,-2.14 -30.1,-4.35 -45.15,-6.62 -15.03,-2.28 -30.04,-4.59 -45.03,-7 -14.96,-2.38 -29.88,-4.83 -44.83,-7.35 -14.92,-2.51 -29.81,-5.12 -44.71,-7.74 -14.9,-2.65 -29.8,-5.32 -44.63,-8.08l-44.41 -8.46 -44.25 -8.82 -44.1 -9.19c-14.67,-3.11 -29.33,-6.33 -43.94,-9.55 -14.63,-3.25 -29.22,-6.54 -43.79,-9.91 -14.56,-3.36 -29.11,-6.76 -43.63,-10.24l-43.53 -10.64 -43.39 -10.97c-14.43,-3.71 -28.82,-7.48 -43.21,-11.32l-43.04 -11.66c-14.32,-3.95 -28.65,-7.94 -42.93,-12.03l-42.79 -12.36c-14.24,-4.17 -28.45,-8.4 -42.65,-12.71l-42.46 -13.06c-14.15,-4.42 -28.25,-8.85 -42.35,-13.4 -14.13,-4.53 -28.21,-9.14 -42.29,-13.77 -14.06,-4.64 -28.08,-9.34 -42.07,-14.11l-41.93 -14.41 -41.78 -14.79c-13.91,-4.98 -27.75,-10.04 -41.61,-15.14 -13.86,-5.1 -27.7,-10.28 -41.49,-15.49 -13.82,-5.21 -27.61,-10.46 -41.36,-15.8 -13.75,-5.32 -27.48,-10.71 -41.19,-16.16l-41.09 -16.51 -40.92 -16.84c-185.95,-77.41 -366.61,-165.03 -541.23,-262.17 161.18,126.61 328.9,245.29 502.52,355.5 12.63,8.03 25.32,15.96 38.01,23.88l38.14 23.62c12.71,7.81 25.43,15.62 38.2,23.35l38.39 22.97c12.8,7.62 25.64,15.14 38.51,22.67l38.6 22.4c12.89,7.42 25.78,14.81 38.74,22.14 12.93,7.3 25.91,14.5 38.89,21.72 12.95,7.21 25.99,14.39 39.02,21.49 13.02,7.13 26.08,14.24 39.17,21.26l39.27 20.86c13.09,6.9 26.22,13.72 39.37,20.54 13.13,6.8 26.29,13.6 39.49,20.31l39.59 20.02c13.22,6.62 26.49,13.13 39.77,19.64l39.86 19.38c13.31,6.4 26.62,12.82 39.97,19.13l40.15 18.76 40.26 18.48c13.42,6.11 26.88,12.22 40.34,18.23l40.48 17.9c13.51,5.91 27.08,11.74 40.64,17.57l40.69 17.3 40.86 17.04c13.64,5.63 27.32,11.14 41.01,16.66 13.68,5.54 27.41,11.02 41.16,16.45 13.7,5.4 27.43,10.83 41.2,16.15l41.37 15.78 41.49 15.5 41.58 15.22 41.71 14.95 41.87 14.59 41.96 14.32c13.99,4.72 28.01,9.45 42.07,14.08 14.06,4.64 28.14,9.14 42.24,13.66l42.36 13.42 42.46 13.16 42.6 12.78 42.73 12.49c14.25,4.12 28.51,8.23 42.81,12.25 14.31,4.01 28.63,8.01 42.98,11.92 14.34,3.92 28.73,7.74 43.12,11.56l43.24 11.3 43.28 11.04c14.48,3.62 29,7.13 43.53,10.63l43.61 10.36 43.72 10.1c14.61,3.31 29.24,6.54 43.9,9.74l44.08 9.42c14.67,3.09 29.35,6.18 44.07,9.16l44.25 8.83c14.79,2.89 29.6,5.65 44.41,8.43l44.52 8.19c14.85,2.67 29.73,5.38 44.62,7.94 14.9,2.59 29.89,5.01 44.83,7.46l44.92 7.22 45.04 6.93c15.03,2.25 30.08,4.42 45.16,6.56 15.1,2.14 30.21,4.19 45.36,6.22l45.44 5.94c15.18,1.92 30.35,3.82 45.55,5.63 15.23,1.81 30.51,3.48 45.76,5.18l45.86 4.95c15.36,1.59 30.66,3.18 46.03,4.65 15.36,1.48 30.79,2.83 46.18,4.2l46.28 3.88c15.47,1.26 30.92,2.5 46.4,3.62 15.52,1.13 31.01,2.23 46.54,3.25 15.56,1.03 31.16,1.94 46.74,2.84l46.84 2.54c15.63,0.8 31.28,1.61 46.94,2.27 15.71,0.67 31.49,1.2 47.22,1.75 15.74,0.55 31.52,1.01 47.29,1.45 15.8,0.45 31.6,0.87 47.42,1.17 15.85,0.34 31.69,0.58 47.55,0.78 15.89,0.2 31.83,0.28 47.75,0.35l28.3 0.15 19.6 -0.11c16,-0.06 32.02,-0.08 47.99,-0.26 16.09,-0.18 32.18,-0.44 48.24,-0.75 16.13,-0.31 32.24,-0.71 48.35,-1.13 16.2,-0.44 32.37,-0.9 48.52,-1.45 16.22,-0.55 32.42,-1.11 48.61,-1.79 16.31,-0.69 32.58,-1.48 48.86,-2.3 16.35,-0.81 32.71,-1.72 49.03,-2.67 16.4,-0.95 32.8,-1.94 49.16,-3.02 16.45,-1.08 32.91,-2.19 49.32,-3.4 16.56,-1.21 33.06,-2.52 49.56,-3.86 16.58,-1.37 33.13,-2.83 49.68,-4.33 16.64,-1.5 33.28,-3.09 49.87,-4.72 16.7,-1.66 33.39,-3.33 50.04,-5.12 16.75,-1.79 33.51,-3.6 50.2,-5.52 16.82,-1.92 33.6,-3.95 50.36,-6.02 16.88,-2.1 33.77,-4.26 50.6,-6.49 16.95,-2.23 33.88,-4.53 50.77,-6.91 17,-2.39 33.99,-4.86 50.93,-7.37 17.07,-2.56 34.15,-5.12 51.15,-7.82 17.13,-2.69 34.28,-5.45 51.35,-8.3 17.22,-2.84 34.41,-5.87 51.57,-8.87 17.29,-3.04 34.54,-6.13 51.75,-9.31 17.37,-3.2 34.7,-6.49 51.99,-9.82 17.44,-3.38 34.83,-6.8 52.19,-10.31 17.5,-3.53 34.96,-7.11 52.38,-10.79 17.59,-3.71 35.14,-7.49 52.66,-11.35 17.65,-3.9 35.24,-7.9 52.82,-11.94 17.73,-4.08 35.43,-8.27 53.1,-12.51 17.79,-4.26 35.55,-8.61 53.29,-13.02 17.9,-4.46 35.73,-8.99 53.55,-13.6 17.99,-4.66 35.91,-9.38 53.8,-14.19 18.06,-4.86 36.07,-9.76 54.02,-14.77 18.14,-5.03 36.26,-10.17 54.31,-15.38 18.23,-5.25 36.39,-10.57 54.53,-16 18.29,-5.45 36.57,-11.02 54.79,-16.64 18.41,-5.68 36.77,-11.46 55.08,-17.31 18.47,-5.91 36.97,-11.92 55.36,-17.98 18.59,-6.14 37.13,-12.36 55.63,-18.68 18.68,-6.38 37.33,-12.84 55.92,-19.38 18.81,-6.62 37.55,-13.3 56.25,-20.1 18.89,-6.84 37.76,-13.82 56.56,-20.86 19,-7.11 37.96,-14.3 56.87,-21.58 19.11,-7.38 38.16,-14.84 57.17,-22.38 19.23,-7.64 38.41,-15.37 57.53,-23.2 19.34,-7.9 38.63,-15.91 57.86,-24.01 19.47,-8.19 38.87,-16.49 58.21,-24.88 19.6,-8.47 39.11,-17.06 58.59,-25.75 19.71,-8.81 39.38,-17.68 58.97,-26.67 19.86,-9.11 39.68,-18.36 59.42,-27.67 19.98,-9.45 39.91,-19.01 59.76,-28.65 20.13,-9.78 40.22,-19.67 60.2,-29.64 20.26,-10.11 40.48,-20.37 60.62,-30.7 20.44,-10.49 40.81,-21.1 61.1,-31.81 20.58,-10.86 41.1,-21.8 61.53,-32.88 20.75,-11.26 41.45,-22.6 62.05,-34.08 20.93,-11.65 41.8,-23.42 62.56,-35.31 21.15,-12.1 42.16,-24.37 63.14,-36.73 21.32,-12.56 42.53,-25.23 63.66,-38.03 21.5,-13 42.95,-26.15 64.26,-39.42 21.7,-13.48 43.33,-27.08 64.84,-40.83 21.96,-14.06 43.81,-28.29 65.58,-42.62 22.18,-14.59 44.28,-29.33 66.25,-44.21 22.4,-15.16 44.74,-30.43 66.91,-45.88 22.71,-15.83 45.29,-31.78 67.77,-47.89 23,-16.46 45.82,-33.08 68.56,-49.84 20.86,-15.39 41.65,-30.84 62.28,-46.45l7.15 -5.46c23.59,-17.89 47.07,-35.95 70.37,-54.15 23.93,-18.71 47.71,-37.56 71.37,-56.6 24.35,-19.6 48.5,-39.4 72.54,-59.36 24.72,-20.55 49.27,-41.3 73.68,-62.21 25.21,-21.61 50.23,-43.43 75.06,-65.43 25.71,-22.8 51.26,-45.82 76.6,-69.03 26.26,-24.08 52.29,-48.37 78.14,-72.89 26.88,-25.51 53.53,-51.28 79.95,-77.28 27.59,-27.15 54.9,-54.55 81.99,-82.2 28.4,-29.05 56.55,-58.35 84.38,-87.95 29.4,-31.25 58.44,-62.8 87.18,-94.67 30.52,-33.86 60.7,-68.06 90.48,-102.6 31.93,-37.01 63.37,-74.41 94.43,-112.2 33.66,-41.01 66.82,-82.42 99.44,-124.31 36,-46.23 71.39,-93 106.08,-140.27 39.34,-53.58 77.79,-107.83 115.4,-162.71 44.54,-64.99 87.84,-130.91 129.9,-197.69 45.69,-72.54 89.91,-146.09 132.6,-220.67 8.82,-15.47 17.48,-30.94 26.08,-46.42z"/>
 </g>
</svg>
