<?xml version="1.0" encoding="UTF-8"?>
<!DOCTYPE svg PUBLIC "-//W3C//DTD SVG 1.1//EN" "http://www.w3.org/Graphics/SVG/1.1/DTD/svg11.dtd">
<!-- Creator: CorelDRAW 2021 (64 Bit) -->
<svg xmlns="http://www.w3.org/2000/svg" xml:space="preserve" width="121.556mm" height="86.0369mm" version="1.1" style="shape-rendering:geometricPrecision; text-rendering:geometricPrecision; image-rendering:optimizeQuality; fill-rule:evenodd; clip-rule:evenodd"
viewBox="0 0 3875.62 2743.16"
 xmlns:xlink="http://www.w3.org/1999/xlink"
 xmlns:xodm="http://www.corel.com/coreldraw/odm/2003">
 <defs>
  <style type="text/css">
   <![CDATA[
    .fil0 {fill:#04A4B2;fill-rule:nonzero}
   ]]>
  </style>
 </defs>
 <g id="Camada_x0020_1">
  <metadata id="CorelCorpID_0Corel-Layer"/>
  <path class="fil0" d="M73.4 1394.66l-0.15 -0.17 0.13 0.24 0.34 0.63 0.35 0.63 0.34 0.63 0.35 0.63 0.35 0.63 0.35 0.63 0.34 0.62 0.36 0.64 0.35 0.63 0.35 0.62 0.34 0.62 0.35 0.62 0.35 0.63 0.35 0.64 0.35 0.62 0.34 0.61 0.35 0.63 0.35 0.63 0.35 0.62 0.35 0.63 0.36 0.62 0.34 0.61 0.36 0.62 0.35 0.62 0.35 0.62 0.35 0.61 0.35 0.63 0.35 0.62 0.36 0.62 0.35 0.62 0.35 0.62 0.35 0.62 0.36 0.62 0.35 0.62 0.35 0.62 0.36 0.62 0.35 0.61 0.35 0.61 0.35 0.62 0.36 0.61 0.36 0.62 0.35 0.61 0.35 0.61 0.35 0.61 0.36 0.61 0.35 0.61 0.36 0.61 0.35 0.61 0.36 0.61 0.35 0.61 0.36 0.61 0.35 0.61 0.36 0.61 0.35 0.61 0.36 0.6 0.36 0.62 0.36 0.61 0.35 0.6 0.35 0.61 0.36 0.61 0.36 0.61 0.36 0.61 0.35 0.6 0.36 0.61 0.36 0.61 0.35 0.61 0.35 0.6 0.36 0.6 0.37 0.61 0.36 0.61 0.35 0.61 0.36 0.6 0.36 0.6 0.35 0.61 0.36 0.6 0.36 0.6 0.22 0.38c203.72,341.12 523.43,604.95 904.69,736.98 4.45,1.55 8.92,3.03 13.39,4.54 4.47,1.5 8.93,3.03 13.41,4.5 4.48,1.46 8.98,2.88 13.48,4.31 4.5,1.43 8.98,2.89 13.5,4.28 4.51,1.39 9.05,2.73 13.58,4.09 4.53,1.36 9.05,2.75 13.61,4.07 4.55,1.32 9.12,2.57 13.68,3.86 4.56,1.29 9.11,2.6 13.68,3.85 4.58,1.25 9.19,2.43 13.77,3.64 4.59,1.21 9.16,2.45 13.76,3.63 4.6,1.17 9.24,2.28 13.86,3.41 4.62,1.14 9.23,2.3 13.87,3.39 4.64,1.09 9.29,2.13 13.94,3.19 4.65,1.06 9.31,2.14 13.97,3.16 4.67,1.02 9.36,1.99 14.05,2.97 4.68,0.99 9.36,1.99 14.06,2.93 4.7,0.95 9.42,1.84 14.13,2.74 4.72,0.91 9.43,1.82 14.16,2.69 4.73,0.87 9.49,1.69 14.24,2.52 4.75,0.83 9.49,1.66 14.26,2.45 4.76,0.79 9.54,1.54 14.32,2.29 4.78,0.75 9.57,1.5 14.36,2.21 4.8,0.71 9.6,1.39 14.42,2.06 4.81,0.68 9.64,1.34 14.46,1.97 4.83,0.63 9.67,1.23 14.51,1.82 4.85,0.59 9.71,1.17 14.57,1.72 4.86,0.55 9.74,1.08 14.62,1.6 4.87,0.51 9.77,0.99 14.66,1.46 4.91,0.47 9.81,0.94 14.73,1.36 4.91,0.43 9.85,0.82 14.77,1.21 4.94,0.39 9.87,0.77 14.81,1.12 4.95,0.34 9.92,0.65 14.89,0.96 4.97,0.3 9.93,0.61 14.91,0.87 4.98,0.26 9.99,0.47 14.98,0.69 5.01,0.22 10,0.45 15.02,0.62 5.02,0.17 10.07,0.28 15.11,0.41 5.04,0.13 10.07,0.3 15.12,0.38 5.06,0.08 10.13,0.11 15.21,0.15 4.99,0.04 9.97,0.13 14.97,0.13l0.26 0c5.12,0 10.22,-0.07 15.33,-0.12 5.12,-0.05 10.24,-0.11 15.36,-0.2 5.14,-0.1 10.27,-0.2 15.4,-0.34 5.17,-0.15 10.34,-0.34 15.5,-0.54 5.19,-0.19 10.36,-0.39 15.54,-0.63 5.22,-0.25 10.42,-0.51 15.63,-0.8 5.24,-0.29 10.46,-0.63 15.69,-0.97 5.24,-0.34 10.49,-0.68 15.72,-1.08 5.26,-0.39 10.53,-0.83 15.8,-1.27 5.3,-0.44 10.59,-0.92 15.87,-1.42 5.31,-0.5 10.61,-0.99 15.91,-1.54 5.34,-0.55 10.67,-1.15 16,-1.76 5.36,-0.61 10.72,-1.25 16.07,-1.91 5.38,-0.66 10.75,-1.32 16.12,-2.03 5.41,-0.72 10.81,-1.48 16.21,-2.25 5.43,-0.77 10.85,-1.58 16.27,-2.4 5.46,-0.83 10.89,-1.66 16.33,-2.55 5.48,-0.9 10.96,-1.82 16.42,-2.77 5.51,-0.95 11.01,-1.95 16.5,-2.96 5.52,-1 11.04,-2.03 16.55,-3.1 5.55,-1.07 11.11,-2.17 16.64,-3.29 5.59,-1.14 11.18,-2.33 16.75,-3.52 5.61,-1.21 11.2,-2.42 16.8,-3.68 5.63,-1.26 11.25,-2.53 16.87,-3.85 5.67,-1.34 11.33,-2.72 16.99,-4.12 5.69,-1.41 11.39,-2.84 17.06,-4.31 5.72,-1.47 11.43,-2.96 17.14,-4.49 5.75,-1.54 11.5,-3.1 17.23,-4.7 5.81,-1.62 11.57,-3.3 17.36,-4.98 5.82,-1.7 11.63,-3.43 17.43,-5.18 5.85,-1.77 11.68,-3.56 17.51,-5.39 5.88,-1.85 11.75,-3.71 17.61,-5.61 5.92,-1.94 11.82,-3.93 17.72,-5.92 5.96,-2.02 11.89,-4.07 17.83,-6.15 5.99,-2.1 11.97,-4.22 17.93,-6.39 6.02,-2.19 12.03,-4.38 18.03,-6.64 6.06,-2.27 12.11,-4.58 18.14,-6.92 6.11,-2.37 12.2,-4.81 18.28,-7.26 6.15,-2.48 12.28,-4.98 18.4,-7.52 6.19,-2.57 12.36,-5.18 18.52,-7.82 6.23,-2.67 12.44,-5.37 18.63,-8.11 6.27,-2.78 12.53,-5.58 18.78,-8.44 6.32,-2.89 12.63,-5.8 18.91,-8.77 6.38,-3.01 12.74,-6.07 19.08,-9.16 6.44,-3.14 12.84,-6.32 19.24,-9.54 6.49,-3.26 12.94,-6.57 19.39,-9.92 6.54,-3.39 13.05,-6.83 19.54,-10.3 6.6,-3.53 13.17,-7.1 19.72,-10.72 6.66,-3.67 13.29,-7.39 19.9,-11.16 6.72,-3.83 13.41,-7.69 20.08,-11.6 6.79,-3.99 13.56,-8.02 20.29,-12.1 6.88,-4.17 13.72,-8.38 20.54,-12.64 6.94,-4.34 13.85,-8.73 20.74,-13.17 7.02,-4.53 14.01,-9.11 20.97,-13.74 7.11,-4.73 14.19,-9.53 21.24,-14.37 7.21,-4.95 14.38,-9.96 21.51,-15.03 7.31,-5.19 14.58,-10.45 21.81,-15.75 7.41,-5.44 14.78,-10.92 22.11,-16.48 7.53,-5.72 15.02,-11.5 22.47,-17.34 7.68,-6.04 15.3,-12.15 22.88,-18.33 7.81,-6.36 15.57,-12.8 23.28,-19.3 7.96,-6.71 15.87,-13.49 23.71,-20.36 8.16,-7.14 16.24,-14.37 24.26,-21.66 8.36,-7.61 16.64,-15.32 24.86,-23.1 8.56,-8.11 17.08,-16.3 25.48,-24.59 8.87,-8.76 17.63,-17.66 26.32,-26.64 9.17,-9.47 18.25,-19.04 27.21,-28.74 9.56,-10.34 19.01,-20.81 28.32,-31.41 10.06,-11.45 19.95,-23.05 29.7,-34.79 10.67,-12.84 21.16,-25.85 31.46,-39.03l2.01 -2.54c10.83,-13.92 21.45,-28 31.84,-42.25 12.86,-17.63 25.36,-35.51 37.51,-53.62 15.24,-22.72 29.92,-45.82 44.01,-69.26 7.62,-12.67 15.06,-25.45 22.33,-38.33 67.37,-119.33 95.08,-258.26 164.83,-376.11 7.66,-12.94 15.82,-25.64 24.6,-38.01 4.58,-6.45 9.35,-12.75 14.28,-18.92 9.01,-11.26 18.58,-22.03 28.66,-32.28 8.03,-8.16 16.38,-15.98 25.02,-23.47 7.46,-6.46 15.12,-12.68 23,-18.64 7.07,-5.34 14.29,-10.48 21.66,-15.4 6.78,-4.52 13.67,-8.87 20.68,-13.03 6.54,-3.89 13.18,-7.61 19.91,-11.18 6.34,-3.35 12.77,-6.56 19.27,-9.63 6.19,-2.92 12.43,-5.71 18.75,-8.37 6.04,-2.55 12.14,-4.96 18.28,-7.26 5.92,-2.2 11.88,-4.31 17.89,-6.28 5.8,-1.91 11.64,-3.69 17.51,-5.37 5.69,-1.63 11.42,-3.16 17.18,-4.58 5.6,-1.38 11.22,-2.67 16.86,-3.85 5.51,-1.15 11.04,-2.2 16.59,-3.16 5.43,-0.94 10.87,-1.77 16.33,-2.52 5.35,-0.73 10.72,-1.37 16.1,-1.92 5.26,-0.53 10.53,-0.96 15.81,-1.31 5.19,-0.35 10.4,-0.61 15.61,-0.79 5.08,-0.17 10.15,-0.26 15.24,-0.26l0.15 0c5.08,0 10.13,0.09 15.17,0.25 5.01,0.16 10,0.41 14.97,0.72 4.95,0.32 9.88,0.72 14.78,1.19 4.88,0.47 9.75,1.02 14.6,1.64 4.83,0.62 9.63,1.31 14.4,2.08 4.77,0.77 9.51,1.61 14.24,2.52 4.72,0.91 9.4,1.89 14.06,2.94 4.66,1.05 9.29,2.17 13.89,3.36 4.59,1.18 9.18,2.44 13.72,3.77 4.54,1.32 9.05,2.71 13.54,4.17 4.49,1.46 8.95,2.99 13.38,4.58 4.44,1.6 8.84,3.26 13.22,4.99 4.38,1.72 8.73,3.53 13.05,5.39 4.33,1.87 8.63,3.79 12.88,5.78 4.27,2 8.51,4.05 12.71,6.17 4.22,2.13 8.4,4.33 12.55,6.58 4.17,2.27 8.29,4.6 12.38,6.99 4.11,2.4 8.17,4.87 12.21,7.4 4.05,2.54 8.06,5.15 12.03,7.81 3.56,2.39 7.08,4.82 10.57,7.3 -2.8,-4.17 -5.64,-8.24 -8.51,-12.27 -3.22,-4.52 -6.48,-8.93 -9.77,-13.28 -3.29,-4.34 -6.59,-8.63 -9.96,-12.81 -3.36,-4.17 -6.77,-8.24 -10.2,-12.26 -3.43,-4.02 -6.88,-7.96 -10.37,-11.82 -3.49,-3.85 -7.02,-7.66 -10.56,-11.36 -3.56,-3.71 -7.15,-7.33 -10.77,-10.89 -3.62,-3.56 -7.26,-7.06 -10.94,-10.47 -3.69,-3.43 -7.39,-6.79 -11.12,-10.07 -3.74,-3.29 -7.5,-6.49 -11.28,-9.63 -3.79,-3.15 -7.6,-6.25 -11.43,-9.26 -3.85,-3.03 -7.73,-5.96 -11.61,-8.84 -3.91,-2.9 -7.82,-5.74 -11.76,-8.49 -3.95,-2.77 -7.92,-5.5 -11.91,-8.14 -4.01,-2.66 -8.03,-5.24 -12.06,-7.75 -4.06,-2.54 -8.11,-5.03 -12.18,-7.43 -4.11,-2.43 -8.23,-4.77 -12.35,-7.07 -4.16,-2.32 -8.32,-4.57 -12.48,-6.75 -4.2,-2.2 -8.41,-4.34 -12.61,-6.41 -4.25,-2.09 -8.5,-4.14 -12.74,-6.1 -4.3,-1.99 -8.6,-3.91 -12.88,-5.78 -4.34,-1.89 -8.68,-3.72 -13.01,-5.47 -4.39,-1.79 -8.76,-3.5 -13.12,-5.15 -4.44,-1.69 -8.87,-3.33 -13.29,-4.88 -4.49,-1.59 -8.95,-3.1 -13.39,-4.55 -4.52,-1.48 -9.03,-2.91 -13.5,-4.26 -4.58,-1.39 -9.12,-2.72 -13.62,-3.97 -4.62,-1.29 -9.21,-2.51 -13.76,-3.67 -4.67,-1.19 -9.29,-2.31 -13.87,-3.38 -4.72,-1.09 -9.4,-2.13 -14.01,-3.09 -4.77,-0.99 -9.49,-1.93 -14.12,-2.79 -4.82,-0.9 -9.57,-1.72 -14.24,-2.49 -4.88,-0.79 -9.66,-1.52 -14.36,-2.18 -4.95,-0.7 -9.78,-1.31 -14.5,-1.87 -5.01,-0.58 -9.89,-1.09 -14.64,-1.54 -5.08,-0.48 -10.02,-0.88 -14.77,-1.21 -5.19,-0.36 -10.15,-0.64 -14.93,-0.84 -5.31,-0.23 -10.34,-0.38 -15.09,-0.45l-6.73 -0.05c-2.86,0 -5.71,0.03 -8.55,0.06 -5.17,0.07 -10.32,0.21 -15.44,0.41 -5.23,0.21 -10.44,0.48 -15.61,0.82 -5.3,0.35 -10.57,0.79 -15.82,1.29 -5.35,0.51 -10.68,1.07 -15.99,1.72 -5.43,0.67 -10.83,1.43 -16.21,2.26 -5.5,0.84 -10.98,1.75 -16.43,2.75 -5.58,1.02 -11.13,2.13 -16.65,3.31 -5.68,1.22 -11.31,2.54 -16.92,3.93 -5.76,1.43 -11.48,2.95 -17.17,4.55 -5.85,1.65 -11.67,3.4 -17.44,5.23 -5.96,1.89 -11.89,3.89 -17.76,5.97 -6.08,2.16 -12.11,4.43 -18.09,6.78 -6.21,2.45 -12.36,5.02 -18.47,7.68 -6.34,2.77 -12.63,5.67 -18.87,8.66 -6.5,3.13 -12.94,6.4 -19.32,9.77 -6.69,3.54 -13.31,7.22 -19.85,11.01 -6.9,4.02 -13.72,8.18 -20.46,12.49 -7.14,4.56 -14.18,9.26 -21.12,14.14 -7.46,5.24 -14.79,10.65 -22.01,16.24 -7.82,6.04 -15.5,12.29 -23.05,18.74 -8.32,7.11 -16.47,14.45 -24.43,22.03 -8.99,8.56 -17.75,17.4 -26.27,26.52 -10.08,10.8 -19.8,22 -29.19,33.55 -12.14,14.94 -23.69,30.49 -34.62,46.61 -10.94,16.15 -21.27,32.85 -30.94,50.09 -6.32,11.27 -12.68,22.51 -19.09,33.72 -16.78,29.34 -33.92,58.47 -51.47,87.3 -14.68,24.11 -29.67,48.02 -45,71.66 -13.15,20.27 -26.56,40.35 -40.25,60.21 -12,17.4 -24.23,34.62 -36.69,51.64 -11.13,15.21 -22.46,30.26 -34,45.14 -10.45,13.48 -21.08,26.8 -31.88,39.99 -9.88,12.05 -19.91,23.98 -30.1,35.77 -9.41,10.88 -18.96,21.63 -28.66,32.27 -9.03,9.92 -18.18,19.73 -27.48,29.44 -8.7,9.07 -17.51,18.04 -26.44,26.92 -8.41,8.35 -16.93,16.61 -25.55,24.78 -8.16,7.72 -16.41,15.35 -24.77,22.89 -7.95,7.17 -15.97,14.26 -24.1,21.27 -7.74,6.66 -15.57,13.25 -23.47,19.77 -4.2,3.46 -8.42,6.92 -12.68,10.34 -3.41,2.74 -6.83,5.45 -10.27,8.16 -7.47,5.9 -14.98,11.74 -22.54,17.5 -7.36,5.61 -14.74,11.17 -22.18,16.65 -7.23,5.33 -14.5,10.59 -21.81,15.8 -7.14,5.09 -14.32,10.13 -21.54,15.1 -7.05,4.86 -14.13,9.66 -21.25,14.4 -6.96,4.65 -13.96,9.23 -20.99,13.76 -6.9,4.45 -13.83,8.88 -20.79,13.23 -6.8,4.25 -13.63,8.42 -20.48,12.57 -6.74,4.08 -13.51,8.11 -20.3,12.1 -6.68,3.91 -13.38,7.8 -20.1,11.62 -6.6,3.75 -13.23,7.44 -19.88,11.1 -6.55,3.6 -13.11,7.15 -19.7,10.66 -6.49,3.46 -13,6.88 -19.53,10.26 -6.44,3.33 -12.89,6.63 -19.37,9.87 -6.38,3.19 -12.79,6.34 -19.2,9.46 -6.33,3.07 -12.67,6.09 -19.03,9.08 -6.28,2.95 -12.58,5.86 -18.9,8.73 -6.24,2.84 -12.49,5.65 -18.77,8.41 -6.19,2.73 -12.4,5.42 -18.63,8.08 -6.15,2.63 -12.31,5.21 -18.49,7.76 -6.11,2.52 -12.23,5.02 -18.37,7.47 -6.07,2.42 -12.15,4.8 -18.25,7.15 -6.03,2.33 -12.07,4.62 -18.13,6.88 -5.99,2.24 -11.99,4.43 -18.01,6.6 -5.95,2.15 -11.92,4.25 -17.9,6.33 -5.92,2.06 -11.86,4.08 -17.8,6.08 -5.88,1.98 -11.78,3.92 -17.68,5.83 -5.85,1.89 -11.72,3.76 -17.6,5.59 -5.83,1.82 -11.66,3.6 -17.5,5.36 -5.8,1.74 -11.6,3.45 -17.42,5.12 -5.76,1.66 -11.53,3.28 -17.31,4.89 -5.73,1.59 -11.47,3.15 -17.22,4.68 -5.7,1.51 -11.41,3.01 -17.12,4.46 -5.67,1.44 -11.35,2.86 -17.04,4.24 -5.64,1.38 -11.29,2.72 -16.95,4.05 -5.61,1.31 -11.25,2.59 -16.88,3.85 -5.59,1.24 -11.18,2.46 -16.77,3.64 -5.57,1.18 -11.14,2.34 -16.71,3.46 -5.54,1.12 -11.09,2.2 -16.64,3.26 -5.52,1.06 -11.03,2.09 -16.56,3.09 -5.49,0.99 -10.97,1.95 -16.47,2.9 -5.47,0.94 -10.93,1.86 -16.41,2.74 -5.44,0.87 -10.89,1.72 -16.34,2.54 -5.41,0.82 -10.83,1.6 -16.25,2.36 -5.39,0.76 -10.79,1.5 -16.19,2.2 -5.38,0.7 -10.75,1.38 -16.13,2.03 -5.35,0.65 -10.7,1.27 -16.06,1.87 -5.33,0.6 -10.65,1.17 -15.98,1.71 -5.31,0.54 -10.62,1.07 -15.93,1.56 -5.28,0.49 -10.56,0.96 -15.85,1.39 -5.26,0.44 -10.53,0.86 -15.79,1.25 -5.24,0.39 -10.49,0.75 -15.73,1.1 -5.22,0.34 -10.44,0.64 -15.66,0.93 -5.19,0.29 -10.39,0.54 -15.59,0.78 -5.18,0.24 -10.36,0.45 -15.54,0.63 -5.16,0.19 -10.32,0.34 -15.48,0.49 -5.14,0.14 -10.28,0.25 -15.42,0.35 -5.11,0.09 -10.23,0.16 -15.36,0.21 -4.98,0.04 -9.97,0.09 -14.95,0.09l-0.36 0c-5.09,0 -10.16,-0.05 -15.24,-0.1 -5.07,-0.04 -10.14,-0.11 -15.2,-0.2 -5.04,-0.09 -10.1,-0.17 -15.14,-0.3 -5.03,-0.13 -10.04,-0.33 -15.06,-0.5 -5.02,-0.18 -10.03,-0.37 -15.03,-0.6 -5,-0.22 -10.01,-0.43 -14.99,-0.69 -4.98,-0.26 -9.94,-0.58 -14.91,-0.88 -4.96,-0.3 -9.93,-0.63 -14.88,-0.98 -4.95,-0.35 -9.89,-0.69 -14.83,-1.08 -4.94,-0.39 -9.86,-0.83 -14.78,-1.26 -4.91,-0.43 -9.82,-0.88 -14.71,-1.35 -4.89,-0.47 -9.78,-0.94 -14.67,-1.46 -4.87,-0.51 -9.74,-1.08 -14.6,-1.63l-14.56 -1.72c-4.84,-0.59 -9.69,-1.19 -14.52,-1.82 -398.6,-52.31 -753.73,-242.61 -1015.83,-521.54l-0.35 -0.36 -0.4 -0.42 -0.41 -0.43 -0.4 -0.42 -0.41 -0.43 -0.4 -0.42 -0.4 -0.42 -0.41 -0.42 -0.41 -0.44 -0.4 -0.41 -0.41 -0.43 -0.4 -0.43 -0.41 -0.42 -0.39 -0.43 -0.41 -0.43 -0.4 -0.43 -0.41 -0.43 -0.4 -0.42 -0.4 -0.43 -0.41 -0.43 -0.4 -0.44 -0.4 -0.42 -0.41 -0.44 -0.4 -0.44 -0.41 -0.43 -0.4 -0.44 -0.4 -0.44 -0.4 -0.42 -0.4 -0.44 -0.41 -0.44 -0.4 -0.44 -0.4 -0.44 -0.39 -0.43 -0.4 -0.44 -0.4 -0.44 -0.41 -0.44 -0.39 -0.44 -0.4 -0.44 -0.4 -0.45 -0.4 -0.44 -0.39 -0.44 -0.4 -0.46 -0.4 -0.45zm3779.04 -341.5l0 -0.9 -0.28 -0.08c-0.79,-0.22 -3.31,-0.92 -7.38,-1.99l-7.33 -1.89 -7.32 -1.84 -7.31 -1.77 -7.29 -1.72 -7.28 -1.67 -7.24 -1.61 -7.26 -1.58 -7.22 -1.53 -7.22 -1.49 -7.21 -1.44 -7.19 -1.39 -7.2 -1.36 -7.15 -1.29 -7.16 -1.26 -7.15 -1.21 -7.13 -1.16 -7.12 -1.13 -7.09 -1.06 -7.1 -1.02 -7.06 -0.97 -7.06 -0.92 -7.05 -0.87 -7.03 -0.82 -7.01 -0.76 -6.99 -0.7 -6.97 -0.65 -6.97 -0.58 -6.95 -0.53 -6.93 -0.48 -6.92 -0.41 -6.89 -0.33 -6.86 -0.27 -6.85 -0.2 -6.84 -0.14 -6.81 -0.06 -6.78 0.04 -6.78 0.11 -6.72 0.19c-2.24,0.08 -4.48,0.16 -6.71,0.27l-6.69 0.37 -6.65 0.48 -6.64 0.58 -6.59 0.68 -6.58 0.79c-2.19,0.28 -4.37,0.57 -6.52,0.9 -2.18,0.32 -4.34,0.67 -6.49,1.03 -2.17,0.37 -4.33,0.77 -6.47,1.18 -2.16,0.41 -4.29,0.86 -6.42,1.32 -2.15,0.46 -4.27,0.95 -6.37,1.46 -2.13,0.52 -4.24,1.06 -6.34,1.63 -2.12,0.58 -4.21,1.17 -6.28,1.79 -2.09,0.63 -4.17,1.29 -6.21,1.98 -2.09,0.7 -4.14,1.42 -6.17,2.18 -2.07,0.77 -4.1,1.57 -6.11,2.41 -2.05,0.85 -4.05,1.74 -6.03,2.66 -2.02,0.94 -4.01,1.91 -5.96,2.93 -2,1.03 -3.96,2.11 -5.88,3.22 -1.96,1.14 -3.89,2.32 -5.76,3.54 -1.94,1.26 -3.83,2.56 -5.67,3.91l-0.01 0.01c-1.88,1.39 -3.73,2.8 -5.59,4.2l-5.58 4.24 -5.56 4.34 -5.53 4.41 -5.52 4.48 -5.46 4.58 -5.45 4.65 -5.44 4.75 -5.4 4.84 -5.39 4.91c-1.8,1.66 -3.57,3.34 -5.34,5.01l-5.35 5.12 -5.29 5.14c-1.78,1.76 -3.53,3.53 -5.28,5.31l-5.25 5.37c-1.75,1.81 -3.51,3.62 -5.24,5.44 -1.76,1.86 -3.48,3.72 -5.2,5.59l-5.16 5.64 -5.15 5.73 -5.12 5.86 -5.08 5.95 -5.07 6.05 -5.04 6.12 -5 6.27c-1.68,2.11 -3.32,4.23 -4.95,6.35l-4.94 6.45 -4.92 6.56 -4.88 6.68c-1.64,2.27 -3.24,4.54 -4.84,6.81l-4.81 6.91 -4.77 7.02 -4.75 7.14 -4.7 7.25 -4.69 7.4 -4.63 7.51c-1.56,2.56 -3.1,5.11 -4.61,7.65l-4.57 7.78 -4.51 7.89 -4.48 8.05 -4.44 8.2 -4.4 8.36c-1.49,2.86 -2.94,5.69 -4.36,8.51l-4.3 8.66 -4.27 8.83 -4.2 8.97c-1.43,3.1 -2.82,6.15 -4.16,9.17 -1.42,3.17 -2.78,6.3 -4.1,9.36 -1.4,3.26 -2.76,6.45 -4.05,9.58 -1.39,3.34 -2.72,6.6 -3.99,9.78 -1.37,3.43 -2.67,6.76 -3.92,10 -1.36,3.53 -2.64,6.95 -3.85,10.23 -1.35,3.67 -2.6,7.19 -3.78,10.53 -1.34,3.82 -2.57,7.45 -3.68,10.82 -1.36,4.09 -2.55,7.83 -3.59,11.19 -1.44,4.65 -2.58,8.56 -3.45,11.65 -1.49,5.31 -2.18,8.18 -2.18,8.18l3.93 -2.09 5.9 -3.12 5.9 -3.12 5.91 -3.05 5.94 -2.98 5.93 -2.98 5.96 -2.93 5.98 -2.84 5.99 -2.84 5.99 -2.78 6.01 -2.69 6.01 -2.69 6.05 -2.63 6.06 -2.55 6.07 -2.55 6.09 -2.46 6.11 -2.39 6.1 -2.39 6.13 -2.27 6.16 -2.24c2.05,-0.74 4.13,-1.52 6.17,-2.23 2.08,-0.72 4.12,-1.38 6.19,-2.08l6.21 -2.09 6.2 -2.01 6.25 -1.92c2.08,-0.63 4.18,-1.31 6.24,-1.92l6.28 -1.78 6.29 -1.76 6.31 -1.69 6.35 -1.59c2.1,-0.52 4.24,-1.09 6.33,-1.58 2.15,-0.51 4.24,-0.94 6.38,-1.42l6.4 -1.41 6.42 -1.31 6.45 -1.24 6.45 -1.18c2.18,-0.38 4.34,-0.72 6.5,-1.06 2.17,-0.35 4.34,-0.71 6.49,-1.03 2.2,-0.33 4.36,-0.59 6.53,-0.87 2.18,-0.29 4.39,-0.62 6.55,-0.87 2.22,-0.26 4.4,-0.46 6.6,-0.69 2.2,-0.23 4.43,-0.49 6.6,-0.69 2.24,-0.2 4.44,-0.33 6.65,-0.5 2.21,-0.16 4.45,-0.37 6.63,-0.5 2.26,-0.13 4.48,-0.2 6.72,-0.3 2.24,-0.1 4.49,-0.23 6.7,-0.29 2.29,-0.06 4.53,-0.07 6.78,-0.1 2.27,-0.04 4.54,-0.07 6.78,-0.06 2.3,0.01 4.57,0.06 6.83,0.11 2.3,0.05 4.58,0.1 6.85,0.18 2.31,0.08 4.59,0.19 6.86,0.32 2.33,0.13 4.64,0.28 6.93,0.45 2.32,0.17 4.66,0.33 6.95,0.54 2.37,0.22 4.68,0.48 7.01,0.75 2.36,0.26 4.72,0.52 7.04,0.82 2.37,0.31 4.73,0.64 7.06,0.99 2.41,0.36 4.79,0.76 7.15,1.16 2.39,0.41 4.79,0.82 7.14,1.27 2.43,0.46 4.83,0.96 7.22,1.46 2.46,0.53 4.87,1.08 7.28,1.65 2.46,0.58 4.9,1.18 7.31,1.8 2.48,0.64 4.95,1.29 7.37,1.97 2.51,0.71 4.96,1.47 7.41,2.23 2.53,0.78 5.02,1.59 7.49,2.41 2.55,0.86 5.06,1.72 7.54,2.62 2.58,0.93 5.12,1.89 7.62,2.86 2.6,1.01 5.17,2.05 7.69,3.11 2.62,1.1 5.22,2.22 7.76,3.37 2.67,1.2 5.28,2.42 7.85,3.67 2.69,1.3 5.32,2.63 7.92,3.98 2.74,1.42 5.41,2.86 8.03,4.32 2.78,1.54 5.49,3.11 8.14,4.69 2.82,1.68 5.57,3.36 8.25,5.07 2.87,1.82 5.67,3.66 8.38,5.51 2.94,2 5.78,4.02 8.53,6.03 2.99,2.19 5.88,4.39 8.66,6.57 3.1,2.44 6.05,4.86 8.87,7.26 3.2,2.72 6.24,5.4 9.11,8.03 3.35,3.08 6.49,6.1 9.39,9 3.59,3.61 6.84,7.06 9.74,10.28 4.1,4.55 7.52,8.65 10.28,12.14 5.89,7.44 8.77,12.07 8.77,12.07l1.14 -1.22c1.74,-1.83 3.48,-3.69 5.17,-5.61 1.72,-1.96 3.41,-3.96 5.07,-6.02 1.68,-2.09 3.33,-4.22 4.95,-6.41 1.65,-2.22 3.26,-4.47 4.85,-6.79 1.61,-2.34 3.19,-4.73 4.73,-7.17 1.58,-2.48 3.12,-5 4.63,-7.56 1.53,-2.6 3.05,-5.25 4.52,-7.95 1.49,-2.72 2.96,-5.49 4.38,-8.3 1.46,-2.87 2.89,-5.79 4.29,-8.74 1.42,-3 2.81,-6.05 4.16,-9.14 1.39,-3.14 2.74,-6.33 4.06,-9.56 1.34,-3.27 2.67,-6.59 3.95,-9.93 1.31,-3.41 2.59,-6.85 3.84,-10.33 1.27,-3.55 2.5,-7.14 3.71,-10.74 1.23,-3.69 2.41,-7.41 3.57,-11.16 1.19,-3.83 2.35,-7.69 3.48,-11.57 1.15,-3.98 2.27,-7.96 3.35,-11.98 1.11,-4.13 2.18,-8.3 3.22,-12.47 1.07,-4.27 2.11,-8.56 3.11,-12.85 1.03,-4.43 2.02,-8.88 2.97,-13.33 0.99,-4.57 1.94,-9.13 2.84,-13.7 0.95,-4.76 1.85,-9.5 2.72,-14.25 0.9,-4.9 1.77,-9.79 2.58,-14.66 0.86,-5.09 1.67,-10.15 2.44,-15.19 0.81,-5.26 1.57,-10.48 2.3,-15.66 0.76,-5.44 1.48,-10.81 2.15,-16.14 0.72,-5.66 1.38,-11.25 2,-16.75 0.65,-5.85 1.27,-11.59 1.84,-17.22 0.61,-6.09 1.16,-12.06 1.67,-17.86 0.55,-6.38 1.04,-12.55 1.49,-18.5 0.49,-6.68 0.93,-13.1 1.3,-19.17 0.44,-7.15 0.77,-13.81 1.06,-19.96 0.37,-7.88 0.62,-14.88 0.8,-20.86 0.36,-11.86 0.42,-19.7 0.43,-22.22zm21.98 -525.09l1.2 0.96 -0.39 -2.92c-1.25,-9.44 -2.5,-18.68 -3.77,-27.74 -1.29,-9.23 -2.61,-18.29 -4,-27.17 -1.39,-8.9 -2.85,-17.64 -4.42,-26.24 -1.53,-8.41 -3.18,-16.69 -4.97,-24.85 -1.72,-7.87 -3.59,-15.63 -5.61,-23.3 -1.93,-7.31 -4.01,-14.53 -6.28,-21.69 -2.14,-6.76 -4.44,-13.46 -6.93,-20.13 -2.34,-6.25 -4.85,-12.46 -7.54,-18.64 -2.53,-5.8 -5.21,-11.58 -8.09,-17.34 -2.69,-5.4 -5.54,-10.79 -8.57,-16.16 -2.84,-5.05 -5.84,-10.1 -9,-15.14 -2.97,-4.74 -6.09,-9.49 -9.36,-14.24 -3.09,-4.48 -6.32,-8.97 -9.7,-13.45 -2.86,-3.81 -5.82,-7.63 -8.9,-11.46l-1.07 -1.33c-3.34,-4.14 -6.74,-8.24 -10.18,-12.29 -3.4,-4.01 -6.84,-7.98 -10.33,-11.92 -3.45,-3.89 -6.95,-7.75 -10.48,-11.57 -3.5,-3.78 -7.03,-7.51 -10.61,-11.22 -3.55,-3.67 -7.14,-7.29 -10.77,-10.88 -3.59,-3.55 -7.22,-7.07 -10.9,-10.55 -3.64,-3.45 -7.32,-6.87 -11.03,-10.24 -3.68,-3.34 -7.4,-6.65 -11.15,-9.92 -3.73,-3.25 -7.5,-6.45 -11.29,-9.61 -3.77,-3.15 -7.58,-6.26 -11.41,-9.32 -3.81,-3.05 -7.66,-6.05 -11.53,-9.02 -3.86,-2.96 -7.76,-5.87 -11.68,-8.74 -3.9,-2.86 -7.82,-5.66 -11.77,-8.44 -3.94,-2.76 -7.9,-5.47 -11.9,-8.16 -3.98,-2.67 -7.97,-5.29 -12,-7.88 -4.02,-2.58 -8.06,-5.11 -12.13,-7.6 -4.05,-2.48 -8.14,-4.93 -12.24,-7.32 -4.1,-2.39 -8.21,-4.74 -12.36,-7.05 -4.14,-2.3 -8.29,-4.55 -12.47,-6.77 -4.17,-2.21 -8.37,-4.36 -12.58,-6.49l-1.25 -0.63c-3.8,-1.9 -7.61,-3.75 -11.45,-5.56 -4.26,-2.01 -8.54,-3.98 -12.84,-5.88 -4.31,-1.91 -8.62,-3.76 -12.97,-5.55 -4.35,-1.8 -8.72,-3.56 -13.11,-5.24 -4.39,-1.69 -8.8,-3.32 -13.23,-4.9 -4.44,-1.58 -8.9,-3.12 -13.37,-4.6 -4.5,-1.49 -9,-2.91 -13.53,-4.28 -4.53,-1.37 -9.08,-2.69 -13.64,-3.95 -4.58,-1.27 -9.16,-2.47 -13.76,-3.63 -4.62,-1.16 -9.26,-2.27 -13.9,-3.31 -4.67,-1.05 -9.35,-2.05 -14.04,-2.98 -4.72,-0.94 -9.44,-1.84 -14.17,-2.66 -4.76,-0.83 -9.53,-1.6 -14.31,-2.32 -4.81,-0.72 -9.64,-1.39 -14.46,-1.99 -4.86,-0.61 -9.72,-1.16 -14.59,-1.65 -4.91,-0.49 -9.82,-0.94 -14.74,-1.31 -4.95,-0.38 -9.92,-0.7 -14.88,-0.95 -5.01,-0.26 -10.02,-0.46 -15.03,-0.59 -5.06,-0.13 -10.12,-0.22 -15.19,-0.23 -5.12,-0.01 -10.23,0.05 -15.34,0.16 -5.17,0.12 -10.34,0.3 -15.5,0.55 -5.22,0.25 -10.45,0.57 -15.66,0.95 -5.28,0.39 -10.57,0.85 -15.85,1.37 -5.35,0.54 -10.69,1.14 -16.02,1.8 -5.41,0.68 -10.82,1.43 -16.21,2.25 -5.47,0.84 -10.94,1.74 -16.39,2.72 -5.55,1 -11.09,2.08 -16.62,3.24 -5.63,1.18 -11.25,2.43 -16.84,3.76 -5.7,1.36 -11.39,2.79 -17.05,4.3 -5.81,1.56 -11.58,3.21 -17.34,4.93 -5.88,1.77 -11.74,3.61 -17.58,5.55 -3.08,1.02 -6.16,2.07 -9.23,3.14 -2.89,1.01 -5.76,2.05 -8.63,3.1 -6.12,2.24 -12.18,4.6 -18.19,7.03 -6.23,2.52 -12.41,5.15 -18.53,7.85 -6.35,2.82 -12.65,5.73 -18.89,8.73 -6.49,3.12 -12.91,6.34 -19.29,9.67 -6.62,3.46 -13.19,7.01 -19.7,10.67 -6.77,3.8 -13.48,7.7 -20.13,11.7 -6.93,4.17 -13.77,8.44 -20.58,12.81 -7.08,4.55 -14.11,9.2 -21.07,13.96 -7.25,4.95 -14.43,9.99 -21.55,15.14 -7.42,5.35 -14.77,10.82 -22.06,16.37 -7.58,5.76 -15.1,11.62 -22.56,17.57 -7.75,6.18 -15.44,12.44 -23.07,18.78 -7.91,6.57 -15.76,13.24 -23.56,19.95 -8.05,6.93 -16.05,13.93 -24,20.98 -8.16,7.23 -16.25,14.52 -24.32,21.83 -8.24,7.48 -16.45,14.99 -24.61,22.51 -8.29,7.63 -16.55,15.28 -24.78,22.92l-18.53 17.19 -6.28 5.83 -24.83 23.02 -24.81 22.99 -24.75 22.86 -24.69 22.71 -24.59 22.47c-8.15,7.42 -16.3,14.81 -24.48,22.19 -8.1,7.31 -16.21,14.6 -24.34,21.87 -8.04,7.18 -16.11,14.35 -24.19,21.49 -7.98,7.05 -15.99,14.07 -24.02,21.07 -7.92,6.9 -15.85,13.77 -23.81,20.61 -7.85,6.75 -15.73,13.46 -23.64,20.15 -7.78,6.58 -15.59,13.13 -23.42,19.65 -7.71,6.41 -15.45,12.79 -23.22,19.14 -7.63,6.23 -15.28,12.43 -22.98,18.6 -7.56,6.06 -15.16,12.09 -22.78,18.08 -5.08,4 -10.17,7.96 -15.28,11.93l-7.28 5.63c-7.44,5.75 -14.91,11.47 -22.39,17.18 -7.4,5.64 -14.84,11.25 -22.27,16.84 -7.37,5.54 -14.76,11.05 -22.15,16.54 -7.31,5.42 -14.64,10.81 -21.99,16.2 -7.28,5.33 -14.56,10.63 -21.87,15.91 -7.23,5.23 -14.49,10.44 -21.76,15.62 -7.2,5.14 -14.41,10.25 -21.64,15.34 -7.16,5.04 -14.33,10.06 -21.53,15.06 -7.12,4.95 -14.26,9.89 -21.41,14.81 -7.09,4.87 -14.19,9.71 -21.32,14.55 -7.05,4.79 -14.11,9.56 -21.19,14.3 -7.02,4.71 -14.05,9.39 -21.1,14.05 -6.99,4.63 -14,9.25 -21.01,13.84 -6.96,4.55 -13.93,9.08 -20.92,13.6 -6.93,4.47 -13.86,8.93 -20.81,13.37l-13.47 8.56 -7.27 4.59c-6.87,4.34 -13.75,8.65 -20.65,12.94 -6.83,4.24 -13.67,8.47 -20.53,12.67 -6.8,4.17 -13.6,8.31 -20.43,12.43 -6.75,4.08 -13.54,8.13 -20.32,12.17 -6.73,4 -13.47,7.97 -20.22,11.93 -6.69,3.91 -13.39,7.81 -20.11,11.67 -6.66,3.83 -13.32,7.63 -20,11.41 -6.62,3.74 -13.25,7.45 -19.9,11.15 -6.59,3.66 -13.18,7.3 -19.8,10.9 -6.55,3.57 -13.12,7.12 -19.7,10.65 -6.51,3.48 -13.04,6.95 -19.58,10.39 -6.47,3.4 -12.96,6.77 -19.46,10.12 -6.44,3.31 -12.9,6.59 -19.37,9.86 -6.41,3.23 -12.83,6.44 -19.27,9.61 -6.37,3.14 -12.76,6.26 -19.15,9.35 -6.34,3.06 -12.67,6.1 -19.04,9.1 -6.3,2.97 -12.62,5.92 -18.95,8.84 -6.27,2.89 -12.55,5.75 -18.84,8.59 -6.23,2.81 -12.48,5.59 -18.74,8.34 -6.2,2.72 -12.41,5.43 -18.63,8.1 -6.17,2.64 -12.34,5.24 -18.52,7.83 -6.13,2.56 -12.27,5.1 -18.43,7.6 -6.09,2.48 -12.2,4.93 -18.32,7.35 -6.07,2.4 -12.15,4.77 -18.25,7.11 -6.03,2.32 -12.07,4.61 -18.13,6.87 -6,2.24 -12.01,4.45 -18.03,6.63 -5.96,2.16 -11.93,4.29 -17.92,6.39 -67.98,23.86 -137.33,43.86 -208.09,59.12 -272.08,58.74 -550.42,34.01 -816.17,-44.46 -141.28,-41.73 -277.74,-99.62 -405.96,-172.16 0.3,2.48 0.59,4.99 0.88,7.5 291.8,365.09 731.09,607.22 1227.59,636.43 4.97,0.3 9.96,0.52 14.95,0.77 5,0.25 9.99,0.51 14.99,0.71 5.01,0.2 10.03,0.39 15.05,0.55 5.04,0.17 10.08,0.3 15.12,0.41 5.05,0.12 10.08,0.26 15.14,0.33 5.07,0.08 10.15,0.09 15.23,0.13 3.67,0.02 7.32,0.08 11,0.08l4.25 -0.02c5.11,-0.01 10.21,-0.04 15.32,-0.11 5.12,-0.05 10.25,-0.14 15.38,-0.25 5.14,-0.11 10.29,-0.23 15.43,-0.38 5.17,-0.16 10.33,-0.34 15.5,-0.54 5.19,-0.2 10.37,-0.42 15.55,-0.67 5.21,-0.25 10.41,-0.51 15.61,-0.81 5.23,-0.29 10.46,-0.63 15.69,-0.98 5.25,-0.35 10.49,-0.73 15.73,-1.12 5.26,-0.4 10.53,-0.82 15.8,-1.27 5.29,-0.45 10.58,-0.92 15.87,-1.42 5.32,-0.5 10.62,-1.04 15.93,-1.58 5.33,-0.55 10.67,-1.13 16,-1.74 5.35,-0.61 10.71,-1.23 16.06,-1.89 5.39,-0.66 10.75,-1.36 16.13,-2.07 5.4,-0.71 10.8,-1.46 16.2,-2.23 5.42,-0.77 10.86,-1.58 16.28,-2.4 5.45,-0.83 10.89,-1.69 16.33,-2.57 5.47,-0.89 10.94,-1.8 16.41,-2.74 5.5,-0.95 11,-1.92 16.49,-2.92 5.54,-1 11.06,-2.05 16.59,-3.11 5.54,-1.07 11.1,-2.15 16.63,-3.27 5.57,-1.14 11.15,-2.3 16.71,-3.48 5.6,-1.2 11.2,-2.41 16.8,-3.66 5.64,-1.26 11.26,-2.56 16.88,-3.88 5.66,-1.33 11.32,-2.68 16.96,-4.06 5.69,-1.39 11.37,-2.82 17.04,-4.27 5.72,-1.46 11.43,-2.96 17.13,-4.49 5.75,-1.53 11.48,-3.1 17.22,-4.69 5.78,-1.6 11.56,-3.26 17.33,-4.93 5.81,-1.68 11.61,-3.39 17.4,-5.14 5.85,-1.77 11.69,-3.57 17.51,-5.39 5.88,-1.84 11.75,-3.7 17.6,-5.61 5.91,-1.92 11.82,-3.89 17.71,-5.88 5.95,-2.01 11.89,-4.04 17.82,-6.12 5.99,-2.1 11.98,-4.23 17.94,-6.4 6.02,-2.18 12.04,-4.41 18.04,-6.66 6.06,-2.28 12.11,-4.58 18.15,-6.93 6.11,-2.37 12.2,-4.79 18.28,-7.23 6.14,-2.47 12.27,-4.98 18.39,-7.52 6.19,-2.58 12.36,-5.19 18.53,-7.85 6.23,-2.68 12.45,-5.4 18.66,-8.17 6.28,-2.79 12.55,-5.62 18.8,-8.49 6.34,-2.91 12.64,-5.86 18.94,-8.85 6.39,-3.03 12.76,-6.11 19.1,-9.23l4.58 -2.24c4.88,-2.41 9.78,-4.87 14.67,-7.34 6.45,-3.26 12.91,-6.56 19.39,-9.92 6.51,-3.38 13.02,-6.79 19.53,-10.27 6.56,-3.5 13.13,-7.04 19.69,-10.64 6.62,-3.63 13.23,-7.3 19.84,-11.02 6.68,-3.75 13.35,-7.56 20.01,-11.41 6.74,-3.89 13.45,-7.84 20.18,-11.84 6.8,-4.05 13.6,-8.13 20.37,-12.27 6.87,-4.19 13.71,-8.44 20.56,-12.74 6.94,-4.37 13.87,-8.77 20.77,-13.24 7.01,-4.54 14.01,-9.13 20.99,-13.77 7.1,-4.73 14.17,-9.51 21.22,-14.35 7.21,-4.95 14.37,-9.95 21.51,-15.01 7.3,-5.18 14.57,-10.41 21.81,-15.71 7.4,-5.42 14.78,-10.89 22.1,-16.43 7.53,-5.7 15,-11.46 22.44,-17.29 7.68,-6.03 15.29,-12.11 22.85,-18.26 7.83,-6.37 15.6,-12.83 23.3,-19.34 8.02,-6.79 15.96,-13.65 23.81,-20.59 8.25,-7.28 16.39,-14.66 24.44,-22.1 8.52,-7.89 16.92,-15.88 25.2,-23.94 8.87,-8.64 17.59,-17.38 26.16,-26.22 9.33,-9.63 18.47,-19.38 27.41,-29.24 9.96,-10.98 19.68,-22.11 29.11,-33.37 10.97,-13.1 21.59,-26.37 31.79,-39.83 4.55,-6 9.03,-12.05 13.42,-18.13 7.89,-10.92 15.58,-21.97 23.11,-33.12 14.87,-22.01 29.11,-44.42 43.07,-67.01 16.35,-26.46 32.3,-53.17 48.37,-79.8 15.25,-25.26 30.6,-50.47 46.52,-75.31 12.84,-20.04 26.05,-39.86 39.86,-59.28l4.64 -6.49c9.53,-13.22 19.36,-26.23 29.51,-39.01 9.84,-12.39 19.96,-24.55 30.39,-36.45 9.07,-10.34 18.36,-20.49 27.87,-30.4 8.52,-8.86 17.21,-17.56 26.09,-26.06 8.08,-7.73 16.3,-15.28 24.67,-22.66 7.72,-6.79 15.57,-13.44 23.54,-19.92 7.42,-6.02 14.95,-11.91 22.59,-17.64 7.16,-5.38 14.43,-10.62 21.8,-15.72 6.94,-4.82 13.98,-9.5 21.11,-14.06 5.54,-3.55 11.14,-7.02 16.8,-10.42l3.69 -2.15c6.59,-3.88 13.23,-7.66 19.94,-11.26 6.41,-3.45 12.89,-6.76 19.41,-9.97 6.27,-3.07 12.6,-6.03 18.96,-8.88 6.16,-2.76 12.35,-5.45 18.59,-7.99 6.03,-2.46 12.1,-4.79 18.2,-7.05 5.95,-2.21 11.91,-4.35 17.92,-6.37 5.83,-1.96 11.7,-3.81 17.59,-5.6 5.76,-1.75 11.55,-3.43 17.35,-5.01 5.68,-1.54 11.38,-3.01 17.1,-4.39 5.6,-1.36 11.22,-2.63 16.86,-3.84 5.54,-1.18 11.1,-2.32 16.67,-3.36 5.48,-1.03 10.99,-1.97 16.49,-2.86 5.42,-0.86 10.84,-1.65 16.27,-2.39 5.36,-0.72 10.72,-1.4 16.09,-1.99 5.3,-0.58 10.62,-1.13 15.94,-1.59 5.24,-0.46 10.5,-0.83 15.76,-1.16 5.2,-0.33 10.41,-0.59 15.61,-0.8 5.15,-0.21 10.3,-0.37 15.45,-0.46 5.11,-0.09 10.22,-0.13 15.33,-0.11 5.06,0.02 10.13,0.08 15.19,0.22 5.02,0.13 10.03,0.33 15.05,0.56 4.97,0.23 9.94,0.53 14.91,0.86 4.94,0.34 9.86,0.73 14.79,1.17 4.89,0.44 9.78,0.92 14.67,1.46 4.86,0.53 9.7,1.11 14.55,1.74 4.82,0.63 9.64,1.29 14.44,2.03 4.79,0.72 9.57,1.5 14.33,2.33 4.73,0.82 9.47,1.69 14.18,2.6 4.71,0.91 9.4,1.87 14.09,2.87 4.66,1 9.32,2.04 13.97,3.13 4.63,1.08 9.26,2.22 13.86,3.39 4.6,1.18 9.19,2.39 13.76,3.66 4.57,1.27 9.12,2.56 13.65,3.91 4.52,1.35 9.04,2.73 13.55,4.17 4.49,1.43 8.97,2.9 13.43,4.43 4.46,1.52 8.9,3.08 13.34,4.69 4.43,1.6 8.83,3.26 13.22,4.96 4.39,1.7 8.75,3.43 13.11,5.21 4.36,1.78 8.7,3.6 13.02,5.47 4.32,1.87 8.62,3.77 12.9,5.72 4.29,1.95 8.54,3.95 12.79,5.98 4.24,2.04 8.48,4.12 12.69,6.25 4.21,2.13 8.41,4.29 12.57,6.51 4.18,2.22 8.34,4.48 12.47,6.78 4.14,2.31 8.26,4.64 12.35,7.04 4.1,2.4 8.17,4.86 12.23,7.34 4.07,2.5 8.1,5.04 12.11,7.63 4.02,2.59 8.03,5.23 12,7.9 3.99,2.69 7.95,5.42 11.88,8.19 3.95,2.79 7.88,5.63 11.77,8.51 3.91,2.89 7.79,5.81 11.63,8.79 3.86,2.99 7.7,6.02 11.49,9.1zm-229.64 1216.63l5.98 -10.81c2.65,-4.72 5.29,-9.44 7.79,-14.3 15.64,-28.75 30.51,-57.92 44.81,-87.69 -2.85,-2.58 -5.73,-5.11 -8.64,-7.61 -3.73,-3.21 -7.51,-6.35 -11.35,-9.44 -3.8,-3.06 -7.66,-6.06 -11.55,-9.01 -3.86,-2.91 -7.76,-5.77 -11.72,-8.57 -3.92,-2.77 -7.89,-5.48 -11.9,-8.14 -3.98,-2.63 -8,-5.21 -12.07,-7.73 -4.04,-2.5 -8.11,-4.94 -12.24,-7.32 -4.1,-2.36 -8.25,-4.66 -12.42,-6.9 -4.16,-2.23 -8.35,-4.4 -12.58,-6.51 -4.21,-2.1 -8.46,-4.14 -12.74,-6.11 -4.26,-1.96 -8.57,-3.85 -12.91,-5.69 -4.33,-1.83 -8.68,-3.6 -13.08,-5.3 -4.38,-1.7 -8.79,-3.34 -13.24,-4.91 -4.45,-1.57 -8.93,-3.07 -13.44,-4.5 -4.5,-1.44 -9.02,-2.8 -13.57,-4.1 -4.55,-1.29 -9.13,-2.53 -13.74,-3.7 -4.61,-1.16 -9.25,-2.25 -13.92,-3.27 -4.67,-1.02 -9.37,-1.97 -14.1,-2.85 -4.73,-0.88 -9.49,-1.7 -14.26,-2.43 -4.79,-0.74 -9.61,-1.39 -14.45,-1.99 -4.86,-0.59 -9.73,-1.1 -14.64,-1.55 -4.92,-0.44 -9.86,-0.81 -14.82,-1.1 -4.98,-0.29 -9.99,-0.49 -15.01,-0.62 -4.02,-0.11 -8.06,-0.16 -12.11,-0.16l-3.1 0.01c-5.17,0.04 -10.31,0.16 -15.43,0.36 -5.24,0.2 -10.45,0.5 -15.64,0.87 -5.31,0.39 -10.59,0.85 -15.86,1.41 -5.4,0.58 -10.77,1.25 -16.12,2.01 -5.49,0.78 -10.95,1.65 -16.37,2.63 -5.6,1.01 -11.16,2.12 -16.67,3.32 -5.69,1.24 -11.34,2.58 -16.95,4.03 -5.81,1.5 -11.57,3.12 -17.28,4.84 -5.93,1.79 -11.82,3.7 -17.65,5.71 -4.6,1.6 -9.17,3.26 -13.7,5l-4.34 1.67c-6.22,2.43 -12.38,5 -18.46,7.68 -6.4,2.83 -12.72,5.8 -18.96,8.9 -6.62,3.29 -13.15,6.75 -19.58,10.35 -6.87,3.84 -13.62,7.85 -20.27,12.03 -7.18,4.52 -14.23,9.23 -21.13,14.12 -7.58,5.37 -14.98,10.96 -22.22,16.77 -8.14,6.54 -16.07,13.36 -23.75,20.42 -4.04,3.71 -8.01,7.5 -11.91,11.34 -3.12,2.96 -10.3,12.39 -17.2,22.01 -6.45,8.99 -12.65,18.14 -15.07,22.35 -9.82,16.94 -19.93,33.7 -30.32,50.26 -13.29,21.19 -27.04,42.06 -41.23,62.59l-2.57 3.7c-10.96,15.85 -22.22,31.48 -33.71,46.93 -10.83,14.57 -21.9,28.96 -33.19,43.17 -10.15,12.79 -20.49,25.42 -31,37.91 -9.65,11.47 -19.44,22.81 -29.38,34.01 -9.22,10.39 -18.58,20.66 -28.05,30.83 -8.89,9.53 -17.9,18.95 -27.01,28.28 -8.63,8.84 -17.35,17.61 -26.16,26.26 -8.38,8.22 -16.85,16.34 -25.39,24.39 -8.18,7.69 -16.43,15.3 -24.76,22.83 -8,7.24 -16.06,14.43 -24.19,21.51 -7.83,6.83 -15.73,13.58 -23.69,20.26 -7.67,6.44 -15.4,12.79 -23.2,19.1 -7.54,6.11 -15.14,12.14 -22.79,18.13 -7.43,5.81 -14.91,11.55 -22.43,17.24 -7.31,5.52 -14.67,11 -22.08,16.41 -7.22,5.27 -14.48,10.49 -21.78,15.66 -7.11,5.03 -14.27,10.01 -21.47,14.93 -7.03,4.8 -14.1,9.57 -21.2,14.27 -6.94,4.59 -13.93,9.14 -20.94,13.64 -6.86,4.4 -13.75,8.75 -20.68,13.05 -6.79,4.21 -13.61,8.39 -20.46,12.5 -6.72,4.05 -13.47,8.04 -20.25,11.99 -6.66,3.88 -13.33,7.72 -20.05,11.51 -6.59,3.72 -13.21,7.4 -19.85,11.04 -6.54,3.58 -13.09,7.12 -19.68,10.61 -6.48,3.43 -12.98,6.85 -19.51,10.2 -6.42,3.3 -12.87,6.58 -19.34,9.8 -6.36,3.17 -12.75,6.27 -19.16,9.36 -6.31,3.05 -12.67,6.04 -19.02,9.01 -6.27,2.93 -12.55,5.81 -18.87,8.66 -6.23,2.82 -12.47,5.61 -18.73,8.35 -6.2,2.71 -12.4,5.41 -18.64,8.05 -6.13,2.6 -12.29,5.14 -18.46,7.66 -6.09,2.49 -12.2,4.94 -18.32,7.36 -6.06,2.4 -12.13,4.76 -18.23,7.08 -6.02,2.3 -12.05,4.6 -18.11,6.84 -5.97,2.21 -11.97,4.38 -17.97,6.52 -5.93,2.12 -11.89,4.18 -17.86,6.23 -5.91,2.03 -11.83,4.03 -17.77,6 -5.88,1.95 -11.77,3.9 -17.68,5.78 -5.83,1.87 -11.68,3.67 -17.55,5.47 -5.8,1.79 -11.62,3.52 -17.45,5.24 -5.78,1.71 -11.57,3.41 -17.38,5.06 -5.74,1.63 -11.49,3.25 -17.26,4.81 -5.7,1.56 -11.43,3.05 -17.16,4.55 -5.68,1.49 -11.39,2.96 -17.1,4.38 -5.67,1.42 -11.33,2.83 -17.02,4.19 -5.61,1.35 -11.26,2.63 -16.9,3.91 -5.6,1.28 -11.21,2.54 -16.84,3.77 -5.58,1.22 -11.16,2.42 -16.76,3.58 -5.54,1.14 -11.09,2.23 -16.65,3.32 -5.53,1.08 -11.05,2.17 -16.6,3.2 -5.49,1.03 -11,2.02 -16.52,2.99 -5.46,0.96 -10.96,1.88 -16.44,2.79 -5.46,0.91 -10.93,1.81 -16.4,2.67 -5.42,0.84 -10.85,1.64 -16.28,2.44 -5.4,0.79 -10.81,1.54 -16.22,2.28 -5.38,0.73 -10.76,1.48 -16.16,2.16 -5.35,0.68 -10.71,1.28 -16.07,1.91 -5.34,0.62 -10.68,1.25 -16.03,1.82 -5.31,0.57 -10.62,1.1 -15.94,1.62 -5.29,0.51 -10.58,0.99 -15.88,1.46 -5.28,0.47 -10.55,0.94 -15.85,1.36 -5.24,0.42 -10.49,0.76 -15.74,1.13 -5.23,0.37 -10.46,0.73 -15.71,1.05 -5.2,0.32 -10.42,0.59 -15.64,0.85 -5.18,0.27 -10.38,0.52 -15.58,0.73 -5.17,0.22 -10.35,0.43 -15.52,0.61 -5.14,0.17 -10.3,0.28 -15.44,0.41 -5.15,0.13 -10.29,0.27 -15.45,0.35 -5.1,0.08 -10.23,0.09 -15.33,0.12 -3.73,0.02 -7.44,0.08 -11.18,0.08l-4.13 -0.01c-5.08,-0.01 -10.16,-0.05 -15.23,-0.11 -5.07,-0.06 -10.13,-0.13 -15.18,-0.24 -5.04,-0.1 -10.08,-0.23 -15.11,-0.37 -5.03,-0.15 -10.06,-0.3 -15.07,-0.49 -5.01,-0.19 -10.01,-0.4 -15.02,-0.63 -5,-0.23 -9.98,-0.49 -14.96,-0.76 -4.98,-0.27 -9.94,-0.56 -14.91,-0.88 -4.95,-0.32 -9.92,-0.65 -14.86,-1.01 -4.94,-0.36 -9.87,-0.75 -14.81,-1.14 -4.93,-0.4 -9.84,-0.83 -14.75,-1.27 -4.9,-0.44 -9.81,-0.89 -14.7,-1.38l-14.65 -1.51c-4.87,-0.52 -9.75,-1.06 -14.6,-1.63 -4.86,-0.56 -9.7,-1.15 -14.55,-1.75 -4.84,-0.61 -9.67,-1.22 -14.49,-1.87 -4.82,-0.64 -9.64,-1.31 -14.46,-1.99 -4.8,-0.68 -9.6,-1.39 -14.4,-2.11 -4.79,-0.73 -9.58,-1.46 -14.36,-2.23 -4.77,-0.76 -9.53,-1.54 -14.29,-2.34 -4.76,-0.8 -9.5,-1.63 -14.26,-2.47 -4.75,-0.84 -9.5,-1.7 -14.23,-2.58l-14.16 -2.7 -14.11 -2.81 -14.06 -2.93c-4.68,-0.99 -9.35,-2.02 -14.01,-3.04 -4.66,-1.04 -9.32,-2.09 -13.96,-3.16 -4.64,-1.07 -9.28,-2.16 -13.91,-3.26l-13.88 -3.39 -13.83 -3.5c-4.6,-1.18 -9.19,-2.38 -13.78,-3.61l-13.72 -3.72c-4.57,-1.26 -9.13,-2.53 -13.69,-3.84l-13.64 -3.94c-4.54,-1.33 -9.07,-2.68 -13.6,-4.05l-13.54 -4.16c-4.51,-1.41 -9.01,-2.82 -13.5,-4.27 -4.51,-1.44 -8.99,-2.91 -13.48,-4.39 -4.48,-1.48 -8.95,-2.98 -13.41,-4.5l-13.37 -4.59 -13.32 -4.72c-4.43,-1.59 -8.85,-3.2 -13.27,-4.83 -4.42,-1.63 -8.83,-3.28 -13.23,-4.94 -4.41,-1.66 -8.8,-3.34 -13.19,-5.04 -4.38,-1.7 -8.76,-3.41 -13.13,-5.15l-13.1 -5.26 -13.05 -5.37c-59.29,-24.68 -116.9,-52.62 -172.58,-83.6 51.4,40.37 104.88,78.22 160.24,113.36 4.03,2.56 8.07,5.09 12.12,7.61l12.16 7.53c4.05,2.49 8.11,4.98 12.18,7.44l12.24 7.32c4.08,2.43 8.17,4.83 12.28,7.23l12.31 7.14c4.11,2.37 8.22,4.72 12.35,7.06 4.12,2.33 8.26,4.62 12.4,6.93 4.13,2.3 8.29,4.59 12.44,6.85 4.15,2.27 8.32,4.54 12.49,6.78l12.52 6.65c4.17,2.2 8.36,4.37 12.55,6.55 4.19,2.17 8.38,4.34 12.59,6.48l12.62 6.38c4.21,2.11 8.45,4.19 12.68,6.26l12.71 6.18c4.24,2.04 8.49,4.09 12.74,6.1l12.8 5.98 12.84 5.89c4.28,1.95 8.57,3.9 12.86,5.81l12.91 5.71c4.31,1.88 8.63,3.74 12.96,5.6l12.97 5.52 13.03 5.43c4.35,1.8 8.71,3.55 13.08,5.31 4.36,1.77 8.74,3.51 13.12,5.24 4.37,1.72 8.75,3.45 13.14,5.15l13.19 5.03 13.23 4.94 13.26 4.85 13.3 4.77 13.35 4.65 13.38 4.57c4.46,1.5 8.93,3.01 13.41,4.49 4.48,1.48 8.97,2.91 13.47,4.36l13.51 4.28 13.54 4.2 13.58 4.07 13.62 3.98c4.54,1.31 9.09,2.62 13.65,3.91 4.56,1.28 9.13,2.55 13.7,3.8 4.57,1.25 9.16,2.47 13.75,3.69l13.79 3.6 13.8 3.52c4.62,1.15 9.25,2.27 13.88,3.39l13.9 3.3 13.94 3.22c4.66,1.06 9.32,2.09 14,3.11l14.05 3c4.68,0.99 9.36,1.97 14.05,2.92l14.11 2.82c4.72,0.92 9.44,1.8 14.16,2.69l14.19 2.61c4.73,0.85 9.48,1.72 14.23,2.53 4.75,0.83 9.53,1.6 14.29,2.38l14.32 2.3 14.36 2.21c4.79,0.72 9.59,1.41 14.4,2.09 4.81,0.68 9.63,1.34 14.46,1.98l14.49 1.89c4.84,0.61 9.68,1.22 14.52,1.8 4.86,0.58 9.73,1.11 14.59,1.65l14.62 1.58c4.9,0.51 9.78,1.01 14.68,1.48 4.9,0.47 9.82,0.9 14.73,1.34l14.76 1.24c4.93,0.4 9.86,0.8 14.8,1.15 4.95,0.36 9.89,0.71 14.84,1.04 4.96,0.33 9.93,0.62 14.91,0.91l14.94 0.81c4.98,0.26 9.97,0.51 14.97,0.72 5.01,0.21 10.04,0.38 15.06,0.56 5.02,0.18 10.05,0.32 15.08,0.46 5.04,0.14 10.08,0.28 15.12,0.37 5.05,0.11 10.1,0.18 15.16,0.25 5.07,0.06 10.15,0.09 15.23,0.11l9.02 0.05 6.25 -0.04c5.1,-0.02 10.21,-0.03 15.3,-0.08 5.13,-0.06 10.26,-0.14 15.38,-0.24 5.14,-0.1 10.28,-0.23 15.42,-0.36 5.17,-0.14 10.32,-0.29 15.47,-0.46 5.17,-0.18 10.34,-0.35 15.5,-0.57 5.2,-0.22 10.39,-0.47 15.58,-0.73 5.21,-0.26 10.43,-0.55 15.64,-0.85 5.23,-0.3 10.46,-0.62 15.68,-0.96 5.24,-0.34 10.49,-0.7 15.73,-1.08 5.28,-0.39 10.54,-0.8 15.8,-1.23 5.29,-0.44 10.56,-0.9 15.84,-1.38 5.31,-0.48 10.61,-0.99 15.9,-1.5 5.32,-0.53 10.65,-1.06 15.96,-1.63 5.34,-0.57 10.68,-1.15 16.01,-1.76 5.36,-0.61 10.71,-1.26 16.06,-1.92 5.38,-0.67 10.77,-1.36 16.14,-2.07 5.4,-0.71 10.8,-1.44 16.19,-2.2 5.42,-0.76 10.84,-1.55 16.24,-2.35 5.44,-0.82 10.89,-1.63 16.31,-2.49 5.46,-0.86 10.93,-1.74 16.38,-2.65 5.49,-0.91 10.97,-1.87 16.45,-2.83 5.51,-0.97 11.01,-1.95 16.5,-2.97 5.54,-1.02 11.06,-2.07 16.58,-3.13 5.56,-1.08 11.11,-2.17 16.64,-3.29 5.58,-1.13 11.15,-2.27 16.7,-3.44 5.61,-1.18 11.2,-2.39 16.79,-3.62 5.63,-1.24 11.24,-2.52 16.84,-3.81 5.65,-1.3 11.3,-2.64 16.93,-3.99 5.67,-1.36 11.33,-2.75 16.99,-4.15 5.71,-1.42 11.39,-2.87 17.08,-4.34 5.74,-1.49 11.45,-2.99 17.16,-4.52 5.76,-1.55 11.5,-3.11 17.23,-4.71 5.78,-1.6 11.56,-3.24 17.32,-4.9 5.81,-1.67 11.6,-3.37 17.39,-5.1 5.83,-1.74 11.66,-3.51 17.47,-5.31 5.87,-1.81 11.72,-3.65 17.56,-5.52 5.89,-1.88 11.79,-3.8 17.65,-5.73 5.93,-1.96 11.84,-3.94 17.74,-5.96 5.96,-2.03 11.9,-4.09 17.83,-6.18 6,-2.11 11.97,-4.24 17.94,-6.41 6.02,-2.18 12.04,-4.41 18.04,-6.65 6.06,-2.27 12.1,-4.56 18.14,-6.88 6.09,-2.35 12.17,-4.73 18.23,-7.14 6.13,-2.44 12.25,-4.9 18.35,-7.4 6.17,-2.52 12.32,-5.07 18.45,-7.66 6.21,-2.61 12.39,-5.26 18.56,-7.93 6.25,-2.7 12.47,-5.44 18.68,-8.21 6.28,-2.81 12.56,-5.64 18.8,-8.5 6.33,-2.9 12.65,-5.85 18.95,-8.82 6.37,-3.01 12.72,-6.06 19.06,-9.13 6.42,-3.12 12.82,-6.27 19.2,-9.45 6.46,-3.22 12.91,-6.49 19.33,-9.79 6.52,-3.34 13.01,-6.73 19.48,-10.14 6.56,-3.46 13.1,-6.95 19.62,-10.48 6.62,-3.59 13.22,-7.21 19.79,-10.87 6.67,-3.71 13.33,-7.47 19.95,-11.26 6.74,-3.86 13.44,-7.77 20.13,-11.71 6.8,-4 13.56,-8.04 20.3,-12.13 6.85,-4.14 13.69,-8.34 20.49,-12.57 6.92,-4.3 13.82,-8.63 20.68,-13.02 7,-4.48 13.97,-9.02 20.91,-13.59 7.07,-4.65 14.12,-9.35 21.13,-14.1 7.14,-4.83 14.26,-9.7 21.34,-14.63 7.24,-5.05 14.44,-10.13 21.61,-15.27 7.33,-5.25 14.61,-10.55 21.86,-15.89 6.65,-4.91 13.28,-9.83 19.86,-14.81l2.28 -1.74c7.52,-5.7 15.01,-11.46 22.44,-17.27 7.63,-5.97 15.21,-11.98 22.76,-18.05 7.76,-6.25 15.47,-12.56 23.13,-18.93 7.88,-6.55 15.71,-13.17 23.49,-19.84 8.04,-6.89 16.02,-13.85 23.93,-20.86 8.2,-7.27 16.35,-14.61 24.43,-22.01 8.37,-7.68 16.68,-15.43 24.92,-23.24 8.57,-8.13 17.07,-16.35 25.49,-24.64 8.8,-8.66 17.51,-17.4 26.14,-26.21 9.05,-9.26 18.03,-18.61 26.91,-28.04 9.37,-9.96 18.64,-20.03 27.8,-30.19 9.73,-10.8 19.36,-21.7 28.85,-32.72 10.18,-11.8 20.21,-23.73 30.11,-35.78 10.73,-13.08 21.31,-26.28 31.71,-39.64 11.48,-14.74 22.76,-29.65 33.83,-44.73 12.54,-17.09 24.81,-34.38 36.8,-51.88 14.2,-20.72 28.01,-41.74 41.42,-63.04 14.57,-23.13 28.67,-46.58 42.28,-70.36 2.81,-4.93 5.57,-9.86 8.32,-14.8z"/>
 </g>
</svg>
